<svg width="129" height="179" viewBox="0 0 129 179" fill="none" xmlns="http://www.w3.org/2000/svg">
<path d="M39 14C39 21.732 32.732 28 25 28C17.268 28 11 21.732 11 14C11 6.26801 17.268 0 25 0C32.732 0 39 6.26801 39 14ZM13.8033 14C13.8033 20.1838 18.8162 25.1967 25 25.1967C31.1838 25.1967 36.1967 20.1838 36.1967 14C36.1967 7.81623 31.1838 2.8033 25 2.8033C18.8162 2.8033 13.8033 7.81623 13.8033 14Z" fill="#68A0F4" fill-opacity="0.22"/>
<path d="M64 78C64 85.732 57.732 92 50 92C42.268 92 36 85.732 36 78C36 70.268 42.268 64 50 64C57.732 64 64 70.268 64 78ZM38.8033 78C38.8033 84.1838 43.8162 89.1967 50 89.1967C56.1838 89.1967 61.1967 84.1838 61.1967 78C61.1967 71.8162 56.1838 66.8033 50 66.8033C43.8162 66.8033 38.8033 71.8162 38.8033 78Z" fill="#68A0F4" fill-opacity="0.22"/>
<path d="M69 196.5C69 230.466 41.4655 258 7.5 258C-26.4655 258 -54 230.466 -54 196.5C-54 162.534 -26.4655 135 7.5 135C41.4655 135 69 162.534 69 196.5ZM-30.706 196.5C-30.706 217.601 -13.6006 234.706 7.5 234.706C28.6006 234.706 45.706 217.601 45.706 196.5C45.706 175.399 28.6006 158.294 7.5 158.294C-13.6006 158.294 -30.706 175.399 -30.706 196.5Z" fill="#68A0F4" fill-opacity="0.22"/>
<path d="M207 95.5C207 129.466 179.466 157 145.5 157C111.534 157 84 129.466 84 95.5C84 61.5345 111.534 34 145.5 34C179.466 34 207 61.5345 207 95.5ZM102.112 95.5C102.112 119.463 121.537 138.888 145.5 138.888C169.463 138.888 188.888 119.463 188.888 95.5C188.888 71.5375 169.463 52.1121 145.5 52.1121C121.537 52.1121 102.112 71.5375 102.112 95.5Z" fill="#68A0F4" fill-opacity="0.22"/>
</svg>
