<svg width="24" height="27" viewBox="0 0 24 27" fill="none" xmlns="http://www.w3.org/2000/svg">
<path d="M16.8662 3.00699e-06C17.4323 -0.00132664 17.8799 0.438453 17.8812 1.02483L17.8825 2.02433C21.5554 2.31218 23.9816 4.81493 23.9855 8.65301L24 19.8874C24.0053 24.072 21.3763 26.6467 17.1624 26.6533L6.86919 26.6667C2.6816 26.672 0.0197643 24.036 0.0144985 19.8394L8.83653e-06 8.73696C-0.00524805 4.87357 2.33538 2.37748 6.00824 2.04032L6.00692 1.04082C6.0056 0.454445 6.44003 0.0133327 7.01926 0.0133327C7.59849 0.012 8.03292 0.45178 8.03423 1.03815L8.03555 1.97102L15.8552 1.96036L15.8539 1.02749C15.8526 0.441118 16.287 0.00133869 16.8662 3.00699e-06ZM17.4033 18.9225H17.3902C16.7846 18.9372 16.2988 19.4449 16.312 20.058C16.3133 20.671 16.8017 21.1761 17.4073 21.1894C18.0247 21.1881 18.5249 20.6803 18.5236 20.054C18.5236 19.4276 18.022 18.9225 17.4033 18.9225ZM6.55588 18.9239C5.95031 18.9505 5.4764 19.4583 5.47771 20.0713C5.50536 20.6843 6.0056 21.1641 6.61117 21.1361C7.20488 21.1094 7.67748 20.6017 7.64983 19.9887C7.63667 19.389 7.14827 18.9225 6.55588 18.9239ZM11.9796 18.9172C11.374 18.9452 10.9014 19.4516 10.9014 20.0646C10.9291 20.6777 11.4293 21.1561 12.0349 21.1294C12.6273 21.1014 13.1012 20.595 13.0736 19.9807C13.0604 19.3823 12.572 18.9159 11.9796 18.9172ZM6.54929 14.1263C5.94373 14.1529 5.47113 14.6607 5.47244 15.2737C5.49878 15.8867 6.00034 16.3665 6.6059 16.3385C7.1983 16.3118 7.6709 15.8041 7.64325 15.1911C7.63009 14.5914 7.14301 14.1249 6.54929 14.1263ZM11.9743 14.0796C11.3688 14.1063 10.8949 14.614 10.8962 15.227C10.9225 15.8401 11.4241 16.3185 12.0296 16.2918C12.622 16.2639 13.0946 15.7574 13.0683 15.1444C13.0538 14.5447 12.5667 14.0783 11.9743 14.0796ZM17.3981 14.0863C16.7925 14.0996 16.3186 14.5927 16.3199 15.2057V15.2204C16.3331 15.8334 16.8333 16.2985 17.4402 16.2852C18.0326 16.2705 18.5052 15.7628 18.492 15.1498C18.4644 14.5634 17.9891 14.085 17.3981 14.0863ZM15.8578 4.01266L8.03818 4.02332L8.0395 5.10145C8.0395 5.67583 7.60639 6.12894 7.02716 6.12894C6.44793 6.13027 6.01219 5.6785 6.01219 5.10412L6.01087 4.07796C3.44382 4.33517 2.02338 5.84375 2.02732 8.7343L2.02865 9.14876L21.9595 9.1221V8.65567C21.9029 5.79044 20.4654 4.28719 17.8851 4.0633L17.8865 5.08946C17.8865 5.6625 17.4402 6.11694 16.8741 6.11694C16.2949 6.11828 15.8591 5.66517 15.8591 5.09212L15.8578 4.01266Z" fill="#006EE9"/>
</svg>
