<svg width="20" height="20" viewBox="0 0 20 20" fill="none" xmlns="http://www.w3.org/2000/svg">
<mask id="mask0_512_8119" style="mask-type:alpha" maskUnits="userSpaceOnUse" x="0" y="0" width="20" height="20">
<path d="M0 20V0H19.9937V20H0Z" fill="white"/>
</mask>
<g mask="url(#mask0_512_8119)">
<path fill-rule="evenodd" clip-rule="evenodd" d="M19.994 9.99322C19.994 15.5195 15.514 19.9995 9.9877 19.9995C4.46143 19.9995 -0.0185547 15.5195 -0.0185547 9.99322C-0.0185547 4.46696 4.46143 -0.013031 9.9877 -0.013031C15.514 -0.013031 19.994 4.46696 19.994 9.99322Z" fill="white"/>
<path fill-rule="evenodd" clip-rule="evenodd" d="M13.2589 13.1209C13.1226 13.1212 12.99 13.077 12.8813 12.9949C12.7725 12.9129 12.6935 12.7976 12.6563 12.6665C12.619 12.5355 12.6257 12.3959 12.6751 12.2689C12.7246 12.142 12.8142 12.0347 12.9302 11.9633L16.0957 10.0118V9.97613L12.9302 8.0246C12.8585 7.98241 12.7959 7.92632 12.7461 7.85962C12.6963 7.79293 12.6604 7.71697 12.6403 7.63619C12.6203 7.55541 12.6165 7.47145 12.6294 7.38921C12.6422 7.30698 12.6713 7.22813 12.715 7.15729C12.7587 7.08645 12.816 7.02504 12.8838 6.97666C12.9515 6.92828 13.0282 6.8939 13.1094 6.87555C13.1905 6.85719 13.2746 6.85522 13.3565 6.86975C13.4384 6.88429 13.5167 6.91503 13.5866 6.96019L16.9109 9.00959L16.9624 9.06119C17.2093 9.30883 17.348 9.64426 17.348 9.99396C17.348 10.3437 17.2093 10.6791 16.9624 10.9267L16.9109 10.9783L13.5866 13.0277C13.4843 13.0909 13.3708 13.1209 13.2589 13.1209ZM6.71667 13.1209C6.60472 13.1209 6.49121 13.0909 6.38896 13.0277L3.0647 10.9783L3.0131 10.9267C2.76621 10.6791 2.62756 10.3437 2.62756 9.99396C2.62756 9.64426 2.76621 9.30883 3.0131 9.06119L3.0647 9.00959L6.38896 6.96019C6.53011 6.87315 6.70006 6.84575 6.86141 6.88401C7.02276 6.92228 7.16231 7.02307 7.24934 7.16422C7.33638 7.30537 7.36378 7.47531 7.32552 7.63667C7.28725 7.79802 7.18646 7.93756 7.04531 8.0246L3.87989 9.97613V10.0118L7.04531 11.9633C7.16115 12.0348 7.2505 12.1421 7.2998 12.269C7.34911 12.3959 7.35567 12.5354 7.31849 12.6663C7.28132 12.7973 7.20244 12.9125 7.09382 12.9945C6.9852 13.0766 6.85279 13.121 6.71667 13.1209ZM7.95525 15.9355C7.85384 15.9355 7.75394 15.9108 7.66417 15.8636C7.57441 15.8164 7.49746 15.7481 7.43998 15.6646C7.38249 15.581 7.34619 15.4848 7.3342 15.384C7.3222 15.2833 7.33488 15.1812 7.37114 15.0865L11.4362 4.45487C11.4647 4.37706 11.5084 4.3057 11.5647 4.24492C11.621 4.18413 11.6888 4.13515 11.7642 4.10081C11.8397 4.06648 11.9211 4.04747 12.004 4.04489C12.0868 4.04231 12.1693 4.05622 12.2467 4.08581C12.3241 4.11539 12.3949 4.16006 12.4548 4.21722C12.5148 4.27439 12.5629 4.3429 12.5961 4.41879C12.6294 4.49467 12.6473 4.57641 12.6487 4.65926C12.6501 4.74211 12.6351 4.82442 12.6044 4.9014L8.53937 15.533C8.49421 15.6514 8.41419 15.7532 8.30989 15.8251C8.20558 15.8969 8.08192 15.9354 7.95525 15.9355Z" fill="#582CD9"/>
</g>
</svg>
