<svg width="26" height="27" viewBox="0 0 26 27" fill="none" xmlns="http://www.w3.org/2000/svg">
<path d="M8.84637 25.0311V20.9542C8.84637 19.9134 9.69623 19.0697 10.7446 19.0697H14.5768C15.0802 19.0697 15.5631 19.2683 15.9191 19.6217C16.275 19.9751 16.475 20.4544 16.475 20.9542V25.0311C16.4718 25.4638 16.6428 25.8798 16.9498 26.1869C17.2569 26.494 17.6747 26.6667 18.1106 26.6667H20.7251C21.9462 26.6698 23.1183 26.1905 23.9829 25.3344C24.8474 24.4784 25.3333 23.316 25.3333 22.1038V10.4891C25.3333 9.50995 24.8961 8.58112 24.1395 7.95289L15.2454 0.901159C13.6982 -0.335251 11.4815 -0.295331 9.98052 0.995972L1.28935 7.95289C0.496987 8.5626 0.0234031 9.49418 0 10.4891V22.0919C0 24.6185 2.06318 26.6667 4.60823 26.6667H7.16305C8.0683 26.6667 8.804 25.9416 8.81056 25.043L8.84637 25.0311Z" fill="#006EE9"/>
</svg>
