<svg width="345" height="81" viewBox="0 0 345 81" fill="none" xmlns="http://www.w3.org/2000/svg">
<path d="M121 29.5C121 43.1586 126.426 56.2579 136.084 65.916C145.742 75.5741 158.841 81 172.5 81C186.159 81 199.258 75.5741 208.916 65.916C218.574 56.2579 224 43.1587 224 29.5L172.5 29.5L121 29.5Z" fill="url(#paint0_linear_512_4549)"/>
<rect width="345" height="57" fill="white"/>
<path d="M106.04 39H101.851V22.1982H95.5371V17.9941H112.339V22.1982H106.04V39ZM126.284 30.6064V26.4023C126.284 25.8262 126.172 25.2842 125.947 24.7764C125.732 24.2588 125.435 23.8096 125.054 23.4287C124.673 23.0479 124.224 22.75 123.706 22.5352C123.198 22.3105 122.656 22.1982 122.08 22.1982C121.504 22.1982 120.957 22.3105 120.439 22.5352C119.932 22.75 119.487 23.0479 119.106 23.4287C118.726 23.8096 118.423 24.2588 118.198 24.7764C117.983 25.2842 117.876 25.8262 117.876 26.4023V30.6064H126.284ZM130.488 39H126.284V34.7959H117.876V39H113.687V26.4023C113.687 25.2402 113.906 24.1514 114.346 23.1357C114.785 22.1104 115.381 21.2168 116.133 20.4551C116.895 19.6934 117.783 19.0928 118.799 18.6533C119.824 18.2139 120.918 17.9941 122.08 17.9941C123.242 17.9941 124.331 18.2139 125.347 18.6533C126.372 19.0928 127.266 19.6934 128.027 20.4551C128.789 21.2168 129.39 22.1104 129.829 23.1357C130.269 24.1514 130.488 25.2402 130.488 26.4023V39ZM132.905 24.293C132.905 23.4238 133.071 22.6084 133.403 21.8467C133.735 21.085 134.185 20.4209 134.751 19.8545C135.327 19.2783 135.996 18.8242 136.758 18.4922C137.52 18.1602 138.335 17.9941 139.204 17.9941H148.843V22.1982H139.204C138.911 22.1982 138.638 22.252 138.384 22.3594C138.13 22.4668 137.905 22.6182 137.71 22.8135C137.524 22.999 137.378 23.2188 137.271 23.4727C137.163 23.7266 137.109 24 137.109 24.293C137.109 24.5859 137.163 24.8643 137.271 25.1279C137.378 25.3818 137.524 25.6064 137.71 25.8018C137.905 25.9873 138.13 26.1338 138.384 26.2412C138.638 26.3486 138.911 26.4023 139.204 26.4023H143.408C144.277 26.4023 145.093 26.5684 145.854 26.9004C146.626 27.2227 147.295 27.6719 147.861 28.248C148.438 28.8145 148.887 29.4834 149.209 30.2549C149.541 31.0166 149.707 31.832 149.707 32.7012C149.707 33.5703 149.541 34.3857 149.209 35.1475C148.887 35.9092 148.438 36.5781 147.861 37.1543C147.295 37.7207 146.626 38.1699 145.854 38.502C145.093 38.834 144.277 39 143.408 39H134.077V34.7959H143.408C143.701 34.7959 143.975 34.7422 144.229 34.6348C144.482 34.5273 144.702 34.3809 144.888 34.1953C145.083 34 145.234 33.7754 145.342 33.5215C145.449 33.2676 145.503 32.9941 145.503 32.7012C145.503 32.4082 145.449 32.1348 145.342 31.8809C145.234 31.627 145.083 31.4072 144.888 31.2217C144.702 31.0264 144.482 30.875 144.229 30.7676C143.975 30.6602 143.701 30.6064 143.408 30.6064H139.204C138.335 30.6064 137.52 30.4404 136.758 30.1084C135.996 29.7764 135.327 29.3271 134.751 28.7607C134.185 28.1846 133.735 27.5156 133.403 26.7539C133.071 25.9824 132.905 25.1621 132.905 24.293ZM156.68 39H152.476V17.9941H156.68V28.4971L164.502 17.9941H169.277L162.642 26.8564L169.277 39H164.502L159.888 30.5039L156.68 34.7959V39ZM182.388 26.4023V30.3867H170.083V26.4023H182.388ZM206.982 32.9941C206.982 33.8633 206.816 34.6836 206.484 35.4551C206.162 36.2168 205.713 36.8857 205.137 37.4619C204.57 38.0283 203.901 38.4775 203.13 38.8096C202.368 39.1318 201.553 39.293 200.684 39.293C199.902 39.293 199.15 39.1562 198.428 38.8828C197.715 38.6094 197.07 38.209 196.494 37.6816C195.918 38.209 195.269 38.6094 194.546 38.8828C193.823 39.1562 193.071 39.293 192.29 39.293C191.421 39.293 190.601 39.1318 189.829 38.8096C189.067 38.4775 188.398 38.0283 187.822 37.4619C187.256 36.8857 186.807 36.2168 186.475 35.4551C186.152 34.6836 185.991 33.8633 185.991 32.9941V17.9941H190.195V32.9941C190.195 33.2871 190.249 33.5654 190.356 33.8291C190.464 34.083 190.61 34.3076 190.796 34.5029C190.991 34.6885 191.216 34.835 191.47 34.9424C191.724 35.0498 191.997 35.1035 192.29 35.1035C192.583 35.1035 192.856 35.0498 193.11 34.9424C193.364 34.835 193.584 34.6885 193.77 34.5029C193.965 34.3076 194.116 34.083 194.224 33.8291C194.331 33.5654 194.385 33.2871 194.385 32.9941V17.9941H198.589V32.9941C198.589 33.2871 198.643 33.5654 198.75 33.8291C198.857 34.083 199.004 34.3076 199.189 34.5029C199.385 34.6885 199.609 34.835 199.863 34.9424C200.117 35.0498 200.391 35.1035 200.684 35.1035C200.977 35.1035 201.25 35.0498 201.504 34.9424C201.758 34.835 201.978 34.6885 202.163 34.5029C202.358 34.3076 202.51 34.083 202.617 33.8291C202.734 33.5654 202.793 33.2871 202.793 32.9941V17.9941H206.982V32.9941ZM223.11 30.6064V26.4023C223.11 25.8262 222.998 25.2842 222.773 24.7764C222.559 24.2588 222.261 23.8096 221.88 23.4287C221.499 23.0479 221.05 22.75 220.532 22.5352C220.024 22.3105 219.482 22.1982 218.906 22.1982C218.33 22.1982 217.783 22.3105 217.266 22.5352C216.758 22.75 216.313 23.0479 215.933 23.4287C215.552 23.8096 215.249 24.2588 215.024 24.7764C214.81 25.2842 214.702 25.8262 214.702 26.4023V30.6064H223.11ZM227.314 39H223.11V34.7959H214.702V39H210.513V26.4023C210.513 25.2402 210.732 24.1514 211.172 23.1357C211.611 22.1104 212.207 21.2168 212.959 20.4551C213.721 19.6934 214.609 19.0928 215.625 18.6533C216.65 18.2139 217.744 17.9941 218.906 17.9941C220.068 17.9941 221.157 18.2139 222.173 18.6533C223.198 19.0928 224.092 19.6934 224.854 20.4551C225.615 21.2168 226.216 22.1104 226.655 23.1357C227.095 24.1514 227.314 25.2402 227.314 26.4023V39ZM247.764 39H243.267L235.166 25.1719V39H230.962V17.9941H235.459L243.56 31.8369V17.9941H247.764V39Z" fill="#006EE9"/>
<defs>
<linearGradient id="paint0_linear_512_4549" x1="201.5" y1="69.5" x2="127" y2="55" gradientUnits="userSpaceOnUse">
<stop offset="0.019257" stop-color="#002FD5"/>
<stop offset="1" stop-color="#6887F2"/>
</linearGradient>
</defs>
</svg>
