<svg width="24" height="24" viewBox="0 0 24 24" fill="none" xmlns="http://www.w3.org/2000/svg">
<path d="M12 15.6739C14.1572 15.6739 16.0862 15.8512 17.4601 16.3378C18.1437 16.5799 18.6548 16.8866 18.9915 17.2541C19.3178 17.6103 19.5 18.0437 19.5 18.599C19.5 19.1535 19.3171 19.5849 18.9897 19.9388C18.6517 20.3042 18.1386 20.6084 17.4531 20.8478C16.0756 21.3289 14.1461 21.5 12 21.5C9.84334 21.5 7.9143 21.3228 6.5403 20.8362C5.85663 20.5941 5.34539 20.2873 5.00864 19.9198C4.68221 19.5636 4.5 19.1302 4.5 18.575C4.5 18.0205 4.68294 17.589 5.0103 17.2351C5.34831 16.8697 5.86139 16.5655 6.54688 16.3261C7.92436 15.845 9.85395 15.6739 12 15.6739ZM12 2.5C14.6632 2.5 16.794 4.6304 16.794 7.29105C16.794 9.95183 14.6631 12.0831 12 12.0831C9.33787 12.0831 7.20601 9.95177 7.20601 7.29105C7.20601 4.63046 9.33775 2.5 12 2.5Z" fill="#006EE9" stroke="#006EE9"/>
</svg>
