<svg width="24" height="24" viewBox="0 0 24 24" fill="none" xmlns="http://www.w3.org/2000/svg">
<path d="M16.6694 2.00037C20.0704 2.00037 21.9904 3.92937 22.0004 7.33037V16.6704C22.0004 20.0704 20.0704 22.0004 16.6694 22.0004H7.33037C3.92937 22.0004 2.00037 20.0704 2.00037 16.6704V7.33037C2.00037 3.92937 3.92937 2.00037 7.33037 2.00037H16.6694ZM12.5004 6.13037C12.2194 5.96037 11.8794 5.96037 11.6104 6.13037C11.3394 6.29937 11.1904 6.61037 11.2194 6.92037V17.1104C11.2704 17.5404 11.6294 17.8604 12.0494 17.8604C12.4804 17.8604 12.8394 17.5404 12.8794 17.1104V6.92037C12.9194 6.61037 12.7704 6.29937 12.5004 6.13037ZM7.83037 9.41037C7.56037 9.24037 7.21937 9.24037 6.95037 9.41037C6.67937 9.58037 6.53037 9.88937 6.56037 10.2004V17.1104C6.59937 17.5404 6.95937 17.8604 7.38937 17.8604C7.82037 17.8604 8.17937 17.5404 8.21937 17.1104V10.2004C8.25037 9.88937 8.09937 9.58037 7.83037 9.41037ZM17.0894 13.0404C16.8204 12.8704 16.4804 12.8704 16.2004 13.0404C15.9294 13.2104 15.7804 13.5094 15.8204 13.8304V17.1104C15.8604 17.5404 16.2194 17.8604 16.6504 17.8604C17.0704 17.8604 17.4294 17.5404 17.4804 17.1104V13.8304C17.5094 13.5094 17.3604 13.2104 17.0894 13.0404Z" fill="#006EE9"/>
</svg>
