<svg width="277" height="261" viewBox="0 0 277 261" fill="none" xmlns="http://www.w3.org/2000/svg">
<path d="M276.561 255.973C276.561 258.243 214.74 260.09 138.504 260.09C62.2672 260.09 0.438751 258.243 0.438751 255.973C0.438751 253.704 62.2599 251.857 138.504 251.857C214.747 251.857 276.561 253.704 276.561 255.973Z" fill="#006EE9"/>
<path opacity="0.3" d="M276.561 255.973C276.561 258.243 214.74 260.09 138.504 260.09C62.2672 260.09 0.438751 258.243 0.438751 255.973C0.438751 253.704 62.2599 251.857 138.504 251.857C214.747 251.857 276.561 253.704 276.561 255.973Z" fill="white"/>
<path d="M250.131 176.719C250.131 176.755 252 174.791 252.102 174.653C253.287 173.067 254.647 169.3 253.36 167.489C253.138 167.195 252.857 166.951 252.535 166.773C252.212 166.594 251.856 166.486 251.489 166.454C251.122 166.423 250.753 166.469 250.405 166.59C250.057 166.71 249.738 166.903 249.469 167.154C248.291 168.187 248.014 170.1 248.116 171.576C248.24 173.307 250.131 176.711 250.131 176.719Z" fill="#006EE9"/>
<path d="M267.121 169.955C265.303 168.682 261.55 170.071 259.971 171.264C259.833 171.373 257.884 173.235 257.92 173.249H257.964C257.368 173.468 256.735 173.7 256.044 173.977C254.778 174.486 253.353 175.082 251.84 175.824C250.207 176.618 248.619 177.502 247.083 178.471C245.363 179.552 243.742 180.783 242.24 182.152C242.221 182.167 242.204 182.184 242.189 182.203C242.509 181.642 243.36 180.021 243.411 179.904C244.138 178.057 244.451 174.086 242.734 172.668C242.441 172.444 242.103 172.284 241.744 172.199C241.384 172.114 241.011 172.105 240.648 172.174C240.286 172.242 239.941 172.387 239.638 172.597C239.334 172.807 239.078 173.079 238.887 173.395C238.028 174.704 238.261 176.617 238.756 178.013C239.309 179.591 241.818 182.195 242.021 182.377C240.524 183.806 239.124 185.334 237.832 186.952C237.105 187.89 236.341 188.857 235.65 189.861C235.912 189.366 236.145 188.916 236.167 188.85C236.894 187.01 237.207 183.032 235.49 181.613C235.197 181.39 234.86 181.23 234.502 181.145C234.143 181.06 233.77 181.052 233.408 181.12C233.046 181.189 232.702 181.333 232.399 181.543C232.096 181.754 231.841 182.025 231.65 182.341C230.785 183.643 231.025 185.563 231.512 186.952C231.999 188.341 234.108 190.639 234.668 191.228L233.817 192.348C232.508 194.174 231.214 195.985 229.883 197.745C229.417 198.363 228.937 198.96 228.428 199.549C228.661 199.105 228.857 198.734 228.879 198.676C229.606 196.829 229.919 192.858 228.203 191.403C227.909 191.178 227.572 191.017 227.212 190.932C226.853 190.846 226.479 190.837 226.116 190.906C225.753 190.974 225.408 191.119 225.105 191.33C224.801 191.541 224.546 191.814 224.355 192.13C223.49 193.439 223.73 195.352 224.224 196.749C224.719 198.145 226.61 200.211 227.272 200.916C226.762 201.513 226.253 202.102 225.73 202.654C225.366 203.025 225.046 203.382 224.653 203.753L223.541 204.8C222.813 205.44 222.086 206.109 221.322 206.72C220.813 207.149 220.326 207.542 219.868 207.942C220.333 207.338 221.235 206.124 221.322 206.015C222.142 204.476 222.552 202.753 222.515 201.011C222.612 200.843 222.695 200.668 222.762 200.487C222.898 200.144 222.961 199.776 222.945 199.408C222.93 199.039 222.837 198.678 222.673 198.347C222.51 198.017 222.278 197.724 221.994 197.489C221.71 197.254 221.379 197.081 221.024 196.981C218.842 196.45 215.86 199.091 214.82 200.778C214.762 200.88 214.209 202.029 213.882 202.764C214.006 202.305 214.144 201.854 214.267 201.382C214.529 200.443 214.762 199.498 214.995 198.472C215.096 197.978 215.206 197.476 215.315 196.974C215.424 196.472 215.489 195.934 215.584 195.41C215.766 194.189 215.896 192.945 216.006 191.687C216.827 191.912 219.758 192.676 221.228 192.414C222.697 192.152 224.493 191.498 225.235 190.123C225.423 189.805 225.542 189.452 225.583 189.085C225.625 188.718 225.589 188.347 225.477 187.995C225.365 187.644 225.18 187.32 224.934 187.045C224.688 186.77 224.387 186.55 224.05 186.399C221.999 185.541 218.631 187.701 217.344 189.206C217.264 189.301 216.464 190.487 216.035 191.148C216.093 190.421 216.151 189.636 216.187 188.865C216.275 186.683 216.304 184.406 216.34 182.166C216.34 181.482 216.34 180.799 216.384 180.115C216.675 180.195 220.144 181.177 221.788 180.922C223.242 180.704 225.053 180.013 225.802 178.631C225.988 178.313 226.104 177.959 226.144 177.592C226.184 177.226 226.147 176.855 226.034 176.504C225.922 176.153 225.737 175.83 225.491 175.555C225.246 175.28 224.946 175.059 224.61 174.908C222.566 174.057 219.191 176.217 217.904 177.722C217.809 177.831 216.66 179.541 216.384 179.992C216.42 178.486 216.471 176.98 216.58 175.504C216.721 173.508 216.988 171.524 217.38 169.562C217.518 169.562 221.133 170.638 222.82 170.376C224.275 170.158 226.079 169.467 226.828 168.085C227.014 167.767 227.13 167.414 227.171 167.048C227.211 166.682 227.174 166.311 227.063 165.96C226.951 165.609 226.767 165.286 226.522 165.01C226.277 164.735 225.978 164.514 225.642 164.362C223.591 163.511 220.217 165.664 218.937 167.176C218.849 167.271 217.969 168.573 217.569 169.198L217.453 169.155C217.902 167.19 218.528 165.269 219.322 163.416C219.744 162.391 220.202 161.438 220.675 160.507C221.329 160.769 224.311 161.962 225.868 161.874C227.424 161.787 229.214 161.322 230.108 160.034C230.328 159.738 230.483 159.399 230.563 159.04C230.643 158.68 230.647 158.308 230.575 157.946C230.502 157.585 230.354 157.243 230.141 156.942C229.928 156.642 229.654 156.389 229.337 156.201C227.395 155.132 223.802 156.929 222.362 158.26C222.282 158.332 221.57 159.169 221.053 159.787C221.271 159.38 221.489 158.95 221.708 158.558C222.522 157.103 223.351 155.794 224.101 154.652C224.53 154.012 224.93 153.437 225.315 152.899C226.086 152.827 229.214 152.47 230.53 151.721C231.846 150.972 233.243 149.692 233.439 148.135C233.499 147.772 233.481 147.399 233.387 147.043C233.294 146.686 233.125 146.354 232.894 146.067C232.663 145.78 232.373 145.545 232.045 145.378C231.716 145.21 231.356 145.114 230.988 145.095C228.77 145.037 226.406 148.259 225.752 150.128C225.693 150.296 225.097 152.921 225.133 152.914H225.184C224.806 153.399 224.406 153.951 223.984 154.572C223.206 155.699 222.34 156.979 221.497 158.434C220.568 159.994 219.731 161.607 218.988 163.263C218.15 165.116 217.476 167.039 216.973 169.009C216.977 169.033 216.977 169.058 216.973 169.082C216.973 168.435 216.755 166.624 216.726 166.485C216.318 164.551 214.376 161.045 212.173 160.827C211.805 160.799 211.435 160.849 211.088 160.974C210.741 161.098 210.424 161.295 210.158 161.55C209.892 161.805 209.682 162.114 209.543 162.455C209.404 162.797 209.338 163.164 209.351 163.533C209.351 165.096 210.609 166.565 211.787 167.453C213.118 168.464 216.646 169.256 216.929 169.315C216.473 171.335 216.15 173.383 215.962 175.446C215.853 176.646 215.773 177.853 215.707 179.082C215.656 178.522 215.606 178.02 215.591 177.955C215.176 176.013 213.235 172.515 211.031 172.289C210.663 172.262 210.294 172.312 209.946 172.436C209.599 172.561 209.282 172.757 209.016 173.012C208.75 173.267 208.54 173.576 208.401 173.918C208.262 174.259 208.197 174.626 208.209 174.995C208.209 176.559 209.467 178.028 210.645 178.922C211.824 179.817 214.842 180.559 215.635 180.748C215.635 181.213 215.591 181.679 215.576 182.144C215.489 184.384 215.416 186.625 215.278 188.814C215.227 189.585 215.147 190.348 215.075 191.105C215.031 190.61 214.98 190.188 214.973 190.13C214.558 188.188 212.616 184.69 210.413 184.464C210.045 184.437 209.675 184.487 209.328 184.611C208.981 184.736 208.664 184.932 208.398 185.187C208.131 185.443 207.922 185.751 207.783 186.093C207.644 186.434 207.578 186.801 207.591 187.17C207.591 188.741 208.849 190.203 210.027 191.097C211.205 191.992 213.933 192.668 214.871 192.887C214.776 193.665 214.675 194.443 214.544 195.185C214.442 195.694 214.384 196.196 214.253 196.698L213.904 198.152C213.642 199.091 213.387 200.065 213.111 200.974C212.922 201.607 212.733 202.211 212.544 202.822C212.602 202.051 212.682 200.545 212.675 200.414C212.565 198.443 211.176 194.683 209.038 194.13C208.679 194.048 208.307 194.042 207.946 194.113C207.584 194.185 207.242 194.331 206.941 194.543C206.64 194.755 206.387 195.028 206.198 195.344C206.009 195.66 205.889 196.012 205.845 196.378C205.605 197.927 206.623 199.563 207.656 200.625C208.689 201.687 212.02 203.076 212.427 203.236C212.107 204.24 211.794 205.207 211.482 206.145C210.398 209.309 209.38 211.906 208.645 213.709C208.645 213.775 208.594 213.833 208.565 213.891L209.889 214.619C209.933 214.502 209.983 214.386 210.027 214.262C210.754 212.422 211.707 209.775 212.725 206.553C213.053 205.535 213.38 204.444 213.707 203.316C214.817 203.455 215.934 203.528 217.053 203.534C217.453 205.156 219.308 207.818 219.548 208.16C218.733 208.822 217.933 209.462 217.169 210.051C214.522 212.095 212.238 213.688 210.624 214.793L210.434 214.924L211.889 215.724C213.46 214.597 215.526 213.033 217.977 211.084C218.806 210.415 219.686 209.68 220.573 208.902C220.9 209.178 223.555 211.433 225.126 211.884C226.544 212.291 228.472 212.422 229.723 211.484C230.025 211.273 230.279 211.001 230.47 210.686C230.66 210.37 230.782 210.018 230.827 209.653C230.872 209.287 230.84 208.916 230.732 208.564C230.625 208.211 230.444 207.885 230.203 207.607C228.704 205.971 224.741 206.516 222.93 207.346C222.828 207.396 221.737 208.073 221.053 208.48C221.417 208.167 221.78 207.869 222.137 207.542C222.864 206.909 223.591 206.247 224.362 205.535L225.453 204.465C225.824 204.109 226.181 203.694 226.544 203.309C227.373 202.393 228.166 201.425 228.944 200.436C229.512 201.076 231.541 203.345 232.886 203.956C234.232 204.567 236.116 204.989 237.498 204.254C237.828 204.091 238.12 203.86 238.355 203.577C238.59 203.294 238.764 202.965 238.864 202.61C238.964 202.256 238.988 201.884 238.936 201.52C238.884 201.156 238.755 200.806 238.559 200.494C237.323 198.654 233.323 198.589 231.417 199.134C231.294 199.171 229.963 199.716 229.235 200.029C229.694 199.432 230.166 198.836 230.61 198.211C231.912 196.414 233.17 194.574 234.436 192.712L235.607 191.025C235.803 191.25 238.159 193.985 239.672 194.661C241.01 195.28 242.894 195.701 244.276 194.959C244.608 194.798 244.901 194.568 245.138 194.285C245.375 194.002 245.549 193.672 245.649 193.317C245.749 192.962 245.773 192.59 245.72 192.225C245.666 191.86 245.536 191.511 245.338 191.199C244.102 189.359 240.101 189.294 238.196 189.847C238.058 189.883 236.152 190.676 235.679 190.901C236.538 189.665 237.41 188.436 238.319 187.265C239.531 185.673 240.848 184.164 242.261 182.748C242.356 182.857 244.8 185.715 246.342 186.428C247.687 187.054 249.571 187.468 250.953 186.734C251.284 186.571 251.576 186.341 251.812 186.058C252.048 185.775 252.222 185.445 252.322 185.09C252.422 184.736 252.447 184.364 252.394 183.999C252.341 183.634 252.212 183.285 252.015 182.973C250.778 181.126 246.778 181.068 244.872 181.613C244.749 181.65 243.301 182.253 242.618 182.552L242.545 182.443C244.005 181.057 245.584 179.803 247.265 178.697C248.189 178.071 249.098 177.526 250 177.024C250.4 177.599 252.255 180.224 253.578 181.024C254.902 181.824 256.669 182.413 258.124 181.832C258.472 181.705 258.788 181.507 259.054 181.25C259.32 180.993 259.528 180.682 259.665 180.339C259.803 179.996 259.866 179.627 259.851 179.258C259.836 178.888 259.743 178.526 259.579 178.195C258.553 176.224 254.582 175.729 252.633 176.064C252.524 176.064 251.462 176.384 250.698 176.617L251.92 175.948C253.411 175.177 254.829 174.551 256.073 174.013C256.8 173.715 257.44 173.453 258.051 173.22C258.742 173.584 261.535 175.017 263.048 175.111C264.561 175.206 266.437 174.915 267.455 173.729C267.688 173.463 267.865 173.152 267.974 172.815C268.084 172.479 268.124 172.123 268.093 171.771C268.062 171.418 267.959 171.075 267.792 170.763C267.625 170.451 267.397 170.176 267.121 169.955Z" fill="#006EE9"/>
<path d="M216.035 156.972C217.089 158.354 220.544 160.151 220.551 160.151C220.559 160.151 221.046 157.518 221.053 157.343C221.169 155.365 220.224 151.481 218.144 150.681C217.796 150.558 217.427 150.509 217.059 150.538C216.692 150.567 216.334 150.673 216.01 150.849C215.686 151.026 215.403 151.268 215.179 151.561C214.956 151.854 214.796 152.191 214.711 152.55C214.304 154.056 215.169 155.801 216.035 156.972Z" fill="#006EE9"/>
<g opacity="0.5">
<path opacity="0.5" d="M250.131 176.719C250.131 176.755 252 174.791 252.102 174.653C253.287 173.068 254.647 169.3 253.36 167.489C253.138 167.195 252.857 166.951 252.535 166.773C252.212 166.595 251.856 166.486 251.489 166.455C251.122 166.423 250.753 166.469 250.405 166.59C250.057 166.71 249.738 166.903 249.469 167.155C248.291 168.187 248.014 170.1 248.116 171.577C248.24 173.308 250.131 176.712 250.131 176.719Z" fill="white"/>
<path opacity="0.5" d="M267.121 169.955C265.303 168.682 261.55 170.071 259.971 171.264C259.833 171.373 257.884 173.235 257.92 173.249H257.964C257.368 173.468 256.735 173.7 256.044 173.977C254.778 174.486 253.353 175.082 251.84 175.824C250.207 176.618 248.619 177.502 247.083 178.471C245.363 179.552 243.742 180.783 242.24 182.152C242.221 182.167 242.204 182.184 242.189 182.203C242.509 181.642 243.36 180.021 243.411 179.904C244.138 178.057 244.451 174.086 242.734 172.668C242.441 172.444 242.103 172.284 241.744 172.199C241.384 172.114 241.011 172.105 240.648 172.174C240.286 172.242 239.941 172.387 239.638 172.597C239.334 172.807 239.078 173.079 238.887 173.395C238.028 174.704 238.261 176.617 238.756 178.013C239.309 179.591 241.818 182.195 242.021 182.377C240.524 183.806 239.124 185.334 237.832 186.952C237.105 187.89 236.341 188.857 235.65 189.861C235.912 189.366 236.145 188.916 236.167 188.85C236.894 187.01 237.207 183.032 235.49 181.613C235.197 181.39 234.86 181.23 234.502 181.145C234.143 181.06 233.77 181.052 233.408 181.12C233.046 181.189 232.702 181.333 232.399 181.543C232.096 181.754 231.841 182.025 231.65 182.341C230.785 183.643 231.025 185.563 231.512 186.952C231.999 188.341 234.108 190.639 234.668 191.228L233.817 192.348C232.508 194.174 231.214 195.985 229.883 197.745C229.417 198.363 228.937 198.96 228.428 199.549C228.661 199.105 228.857 198.734 228.879 198.676C229.606 196.829 229.919 192.858 228.203 191.403C227.909 191.178 227.572 191.017 227.212 190.932C226.853 190.846 226.479 190.837 226.116 190.906C225.753 190.974 225.408 191.119 225.105 191.33C224.801 191.541 224.546 191.814 224.355 192.13C223.49 193.439 223.73 195.352 224.224 196.749C224.719 198.145 226.61 200.211 227.272 200.916C226.762 201.513 226.253 202.102 225.73 202.654C225.366 203.025 225.046 203.382 224.653 203.753L223.541 204.8C222.813 205.44 222.086 206.109 221.322 206.72C220.813 207.149 220.326 207.542 219.868 207.942C220.333 207.338 221.235 206.124 221.322 206.015C222.142 204.476 222.552 202.753 222.515 201.011C222.612 200.843 222.695 200.668 222.762 200.487C222.898 200.144 222.961 199.776 222.945 199.408C222.93 199.039 222.837 198.678 222.673 198.347C222.51 198.017 222.278 197.724 221.994 197.489C221.71 197.254 221.379 197.081 221.024 196.981C218.842 196.45 215.86 199.091 214.82 200.778C214.762 200.88 214.209 202.029 213.882 202.764C214.006 202.305 214.144 201.854 214.267 201.382C214.529 200.443 214.762 199.498 214.995 198.472C215.096 197.978 215.206 197.476 215.315 196.974C215.424 196.472 215.489 195.934 215.584 195.41C215.766 194.189 215.896 192.945 216.006 191.687C216.827 191.912 219.758 192.676 221.228 192.414C222.697 192.152 224.493 191.498 225.235 190.123C225.423 189.805 225.542 189.452 225.583 189.085C225.625 188.718 225.589 188.347 225.477 187.995C225.365 187.644 225.18 187.32 224.934 187.045C224.688 186.77 224.387 186.55 224.05 186.399C221.999 185.541 218.631 187.701 217.344 189.206C217.264 189.301 216.464 190.487 216.035 191.148C216.093 190.421 216.151 189.636 216.187 188.865C216.275 186.683 216.304 184.406 216.34 182.166C216.34 181.482 216.34 180.799 216.384 180.115C216.675 180.195 220.144 181.177 221.788 180.922C223.242 180.704 225.053 180.013 225.802 178.631C225.988 178.313 226.104 177.959 226.144 177.592C226.184 177.226 226.147 176.855 226.034 176.504C225.922 176.153 225.737 175.83 225.491 175.555C225.246 175.28 224.946 175.059 224.61 174.908C222.566 174.057 219.191 176.217 217.904 177.722C217.809 177.831 216.66 179.541 216.384 179.992C216.42 178.486 216.471 176.98 216.58 175.504C216.721 173.508 216.988 171.524 217.38 169.562C217.518 169.562 221.133 170.638 222.82 170.376C224.275 170.158 226.079 169.467 226.828 168.085C227.014 167.767 227.13 167.414 227.171 167.048C227.211 166.682 227.174 166.311 227.063 165.96C226.951 165.609 226.767 165.286 226.522 165.01C226.277 164.735 225.978 164.514 225.642 164.362C223.591 163.511 220.217 165.664 218.937 167.176C218.849 167.271 217.969 168.573 217.569 169.198L217.453 169.155C217.902 167.19 218.528 165.269 219.322 163.416C219.744 162.391 220.202 161.438 220.675 160.507C221.329 160.769 224.311 161.962 225.868 161.874C227.424 161.787 229.214 161.322 230.108 160.034C230.328 159.738 230.483 159.399 230.563 159.04C230.643 158.68 230.647 158.308 230.575 157.946C230.502 157.585 230.354 157.243 230.141 156.942C229.928 156.642 229.654 156.389 229.337 156.201C227.395 155.132 223.802 156.929 222.362 158.26C222.282 158.332 221.57 159.169 221.053 159.787C221.271 159.38 221.489 158.95 221.708 158.558C222.522 157.103 223.351 155.794 224.101 154.652C224.53 154.012 224.93 153.437 225.315 152.899C226.086 152.827 229.214 152.47 230.53 151.721C231.846 150.972 233.243 149.692 233.439 148.135C233.499 147.772 233.481 147.399 233.387 147.043C233.294 146.686 233.125 146.354 232.894 146.067C232.663 145.78 232.373 145.545 232.045 145.378C231.716 145.21 231.356 145.114 230.988 145.095C228.77 145.037 226.406 148.259 225.752 150.128C225.693 150.296 225.097 152.921 225.133 152.914H225.184C224.806 153.399 224.406 153.951 223.984 154.572C223.206 155.699 222.34 156.979 221.497 158.434C220.568 159.994 219.731 161.607 218.988 163.263C218.15 165.116 217.476 167.039 216.973 169.009C216.977 169.033 216.977 169.058 216.973 169.082C216.973 168.435 216.755 166.624 216.726 166.485C216.318 164.551 214.376 161.045 212.173 160.827C211.805 160.799 211.435 160.849 211.088 160.974C210.741 161.098 210.424 161.295 210.158 161.55C209.892 161.805 209.682 162.114 209.543 162.455C209.404 162.797 209.338 163.164 209.351 163.533C209.351 165.096 210.609 166.565 211.787 167.453C213.118 168.464 216.646 169.256 216.929 169.315C216.473 171.335 216.15 173.383 215.962 175.446C215.853 176.646 215.773 177.853 215.707 179.082C215.656 178.522 215.606 178.02 215.591 177.955C215.176 176.013 213.235 172.515 211.031 172.289C210.663 172.262 210.294 172.312 209.946 172.436C209.599 172.561 209.282 172.757 209.016 173.012C208.75 173.267 208.54 173.576 208.401 173.918C208.262 174.259 208.197 174.626 208.209 174.995C208.209 176.559 209.467 178.028 210.645 178.922C211.824 179.817 214.842 180.559 215.635 180.748C215.635 181.213 215.591 181.679 215.576 182.144C215.489 184.384 215.416 186.625 215.278 188.814C215.227 189.585 215.147 190.348 215.075 191.105C215.031 190.61 214.98 190.188 214.973 190.13C214.558 188.188 212.616 184.69 210.413 184.464C210.045 184.437 209.675 184.487 209.328 184.611C208.981 184.736 208.664 184.932 208.398 185.187C208.131 185.443 207.922 185.751 207.783 186.093C207.644 186.434 207.578 186.801 207.591 187.17C207.591 188.741 208.849 190.203 210.027 191.097C211.205 191.992 213.933 192.668 214.871 192.887C214.776 193.665 214.675 194.443 214.544 195.185C214.442 195.694 214.384 196.196 214.253 196.698L213.904 198.152C213.642 199.091 213.387 200.065 213.111 200.974C212.922 201.607 212.733 202.211 212.544 202.822C212.602 202.051 212.682 200.545 212.675 200.414C212.565 198.443 211.176 194.683 209.038 194.13C208.679 194.048 208.307 194.042 207.946 194.113C207.584 194.185 207.242 194.331 206.941 194.543C206.64 194.755 206.387 195.028 206.198 195.344C206.009 195.66 205.889 196.012 205.845 196.378C205.605 197.927 206.623 199.563 207.656 200.625C208.689 201.687 212.02 203.076 212.427 203.236C212.107 204.24 211.794 205.207 211.482 206.145C210.398 209.309 209.38 211.906 208.645 213.709C208.645 213.775 208.594 213.833 208.565 213.891L209.889 214.619C209.933 214.502 209.983 214.386 210.027 214.262C210.754 212.422 211.707 209.775 212.725 206.553C213.053 205.535 213.38 204.444 213.707 203.316C214.817 203.455 215.934 203.528 217.053 203.534C217.453 205.156 219.308 207.818 219.548 208.16C218.733 208.822 217.933 209.462 217.169 210.051C214.522 212.095 212.238 213.688 210.624 214.793L210.434 214.924L211.889 215.724C213.46 214.597 215.526 213.033 217.977 211.084C218.806 210.415 219.686 209.68 220.573 208.902C220.9 209.178 223.555 211.433 225.126 211.884C226.544 212.291 228.472 212.422 229.723 211.484C230.025 211.273 230.279 211.001 230.47 210.686C230.66 210.37 230.782 210.018 230.827 209.653C230.872 209.287 230.84 208.916 230.732 208.564C230.625 208.211 230.444 207.885 230.203 207.607C228.704 205.971 224.741 206.516 222.93 207.346C222.828 207.396 221.737 208.073 221.053 208.48C221.417 208.167 221.78 207.869 222.137 207.542C222.864 206.909 223.591 206.247 224.362 205.535L225.453 204.465C225.824 204.109 226.181 203.694 226.544 203.309C227.373 202.393 228.166 201.425 228.944 200.436C229.512 201.076 231.541 203.345 232.886 203.956C234.232 204.567 236.116 204.989 237.498 204.254C237.828 204.091 238.12 203.86 238.355 203.577C238.59 203.294 238.764 202.965 238.864 202.61C238.964 202.256 238.988 201.884 238.936 201.52C238.884 201.156 238.755 200.806 238.559 200.494C237.323 198.654 233.323 198.589 231.417 199.134C231.294 199.171 229.963 199.716 229.235 200.029C229.694 199.432 230.166 198.836 230.61 198.211C231.912 196.414 233.17 194.574 234.436 192.712L235.607 191.025C235.803 191.25 238.159 193.985 239.672 194.661C241.01 195.28 242.894 195.701 244.276 194.959C244.608 194.798 244.901 194.568 245.138 194.285C245.375 194.002 245.549 193.672 245.649 193.317C245.749 192.962 245.773 192.59 245.72 192.225C245.666 191.86 245.536 191.511 245.338 191.199C244.102 189.359 240.101 189.294 238.196 189.847C238.058 189.883 236.152 190.676 235.679 190.901C236.538 189.665 237.41 188.436 238.319 187.265C239.531 185.673 240.848 184.164 242.261 182.748C242.356 182.857 244.8 185.715 246.342 186.428C247.687 187.054 249.571 187.468 250.953 186.734C251.284 186.571 251.576 186.341 251.812 186.058C252.048 185.775 252.222 185.445 252.322 185.09C252.422 184.736 252.447 184.364 252.394 183.999C252.341 183.634 252.212 183.285 252.015 182.973C250.778 181.126 246.778 181.068 244.872 181.613C244.749 181.65 243.301 182.253 242.618 182.552L242.545 182.443C244.005 181.057 245.584 179.803 247.265 178.697C248.189 178.071 249.098 177.526 250 177.024C250.4 177.599 252.255 180.224 253.578 181.024C254.902 181.824 256.669 182.413 258.124 181.832C258.472 181.705 258.788 181.507 259.054 181.25C259.32 180.993 259.528 180.682 259.665 180.339C259.803 179.996 259.866 179.627 259.851 179.258C259.836 178.888 259.743 178.526 259.579 178.195C258.553 176.224 254.582 175.729 252.633 176.064C252.524 176.064 251.462 176.384 250.698 176.617L251.92 175.948C253.411 175.177 254.829 174.551 256.073 174.013C256.8 173.715 257.44 173.453 258.051 173.22C258.742 173.584 261.535 175.017 263.048 175.111C264.561 175.206 266.437 174.915 267.455 173.729C267.688 173.463 267.865 173.152 267.974 172.815C268.084 172.479 268.124 172.123 268.093 171.771C268.062 171.418 267.959 171.075 267.792 170.763C267.625 170.451 267.397 170.176 267.121 169.955Z" fill="white"/>
<path opacity="0.5" d="M216.035 156.972C217.089 158.354 220.544 160.151 220.551 160.151C220.559 160.151 221.046 157.518 221.053 157.343C221.169 155.365 220.224 151.481 218.144 150.681C217.796 150.558 217.427 150.509 217.059 150.538C216.692 150.567 216.334 150.673 216.01 150.849C215.686 151.026 215.403 151.268 215.18 151.561C214.956 151.854 214.796 152.191 214.711 152.55C214.304 154.056 215.169 155.801 216.035 156.972Z" fill="white"/>
</g>
<path d="M74.0714 120.2C74.115 120.2 73.5041 117.152 73.4387 116.97C72.7113 114.788 70.093 110.999 67.5329 111.006C67.1077 111.02 66.69 111.122 66.3071 111.308C65.9241 111.493 65.5844 111.757 65.31 112.082C65.0357 112.407 64.8328 112.786 64.7145 113.195C64.5963 113.603 64.5653 114.032 64.6237 114.454C64.8128 116.25 66.4274 117.785 67.8893 118.665C69.5912 119.705 74.0714 120.2 74.0714 120.2Z" fill="#006EE9"/>
<path d="M79.0244 99.6821C76.6097 100.548 75.3878 105.013 75.4897 107.297C75.4897 107.493 75.9479 110.57 75.9915 110.548H76.0424C75.8461 111.275 75.6497 112.003 75.446 112.839C75.0824 114.374 74.7187 116.112 74.3842 118.032C74.0388 120.1 73.8105 122.186 73.7005 124.28C73.5728 126.622 73.6531 128.97 73.9405 131.298C73.944 131.327 73.944 131.356 73.9405 131.385C73.6278 130.702 72.6823 128.833 72.5877 128.694C71.3367 126.782 67.7875 123.821 65.3146 124.505C64.9083 124.631 64.5328 124.841 64.2126 125.121C63.8923 125.401 63.6344 125.745 63.4555 126.131C63.2766 126.517 63.1807 126.936 63.1739 127.361C63.1672 127.786 63.2498 128.208 63.4164 128.6C64.0709 130.28 66.0347 131.335 67.6784 131.8C69.533 132.331 73.6641 131.705 73.9914 131.655C74.3408 134.018 74.8486 136.356 75.5115 138.651C75.8897 139.99 76.3115 141.328 76.7552 142.666C76.4643 142.084 76.1952 141.568 76.1515 141.502C74.8933 139.589 71.3513 136.629 68.8784 137.313C68.4717 137.437 68.0956 137.645 67.7748 137.924C67.4539 138.204 67.1955 138.547 67.0164 138.933C66.8373 139.318 66.7415 139.738 66.7352 140.163C66.729 140.588 66.8124 141.01 66.9802 141.401C67.6347 143.088 69.5985 144.142 71.2422 144.608C72.8859 145.073 76.4352 144.608 77.3734 144.484C77.5479 144.993 77.7152 145.51 77.8898 146.019C78.7335 148.463 79.5917 150.906 80.3554 153.292C80.6245 154.143 80.8572 154.994 81.0827 155.838C80.8208 155.321 80.6026 154.892 80.559 154.834C79.308 152.921 75.7588 149.961 73.2859 150.645C72.8792 150.769 72.5031 150.977 72.1822 151.256C71.8614 151.535 71.603 151.879 71.4239 152.264C71.2448 152.65 71.149 153.069 71.1427 153.494C71.1365 153.92 71.2199 154.341 71.3876 154.732C72.0422 156.419 74.006 157.474 75.6497 157.939C77.2934 158.405 80.5008 157.998 81.6136 157.838C81.8318 158.718 82.05 159.59 82.2173 160.449C82.3264 161.038 82.4646 161.598 82.5373 162.201C82.61 162.805 82.6973 163.372 82.7846 163.947C82.9009 165.067 83.0246 166.224 83.1119 167.322C83.1773 168.049 83.2209 168.776 83.2719 169.504C83.0173 168.653 82.4718 166.994 82.4136 166.864C81.508 165.066 80.1587 163.529 78.4935 162.398C78.4006 162.194 78.2885 161.999 78.1589 161.816C77.9285 161.458 77.6254 161.152 77.2692 160.919C76.9131 160.685 76.5119 160.529 76.0915 160.46C75.6712 160.392 75.2411 160.412 74.8292 160.52C74.4173 160.629 74.0328 160.822 73.7005 161.089C71.7659 162.769 72.2459 167.358 73.1405 169.467C73.1914 169.591 73.9187 170.871 74.3842 171.649C74.035 171.22 73.7078 170.798 73.3441 170.355C72.6168 169.489 71.8895 168.638 71.104 167.722L69.9039 166.42C69.5112 165.976 69.0457 165.562 68.6093 165.125C67.5911 164.136 66.5001 163.183 65.3874 162.216C66.1147 161.591 68.8203 159.307 69.5912 157.801C70.3621 156.296 70.9004 154.114 70.1003 152.492C69.9254 152.104 69.6706 151.758 69.3526 151.475C69.0347 151.192 68.6607 150.98 68.2551 150.851C67.8494 150.723 67.4213 150.682 66.9986 150.73C66.5759 150.778 66.1681 150.915 65.8019 151.132C63.62 152.492 63.4164 157.103 63.9764 159.321C64.0127 159.46 64.5946 161.001 64.9292 161.845C64.2528 161.292 63.5836 160.732 62.8854 160.187C60.8562 158.623 58.7616 157.103 56.6742 155.576C56.0342 155.11 55.4014 154.63 54.7687 154.165C55.045 153.939 58.2816 151.328 59.1325 149.612C59.8962 148.084 60.4489 145.924 59.6489 144.302C59.474 143.915 59.2192 143.568 58.9012 143.285C58.5833 143.003 58.2093 142.79 57.8036 142.662C57.398 142.534 56.9699 142.492 56.5472 142.54C56.1245 142.589 55.7167 142.726 55.3505 142.942C53.1686 144.302 52.9577 148.914 53.525 151.132C53.525 151.299 54.405 153.525 54.645 154.077C53.2486 153.037 51.874 151.99 50.5503 150.899C48.7544 149.438 47.0539 147.864 45.4591 146.186C45.59 146.084 48.9793 143.371 49.823 141.611C50.5866 140.084 51.1394 137.924 50.3394 136.302C50.1644 135.914 49.9097 135.568 49.5917 135.285C49.2737 135.002 48.8997 134.79 48.4941 134.661C48.0885 134.533 47.6603 134.492 47.2376 134.54C46.8149 134.588 46.4072 134.725 46.041 134.942C43.859 136.302 43.6481 140.913 44.2154 143.131C44.2154 143.277 44.8918 144.972 45.2118 145.772L45.0882 145.844C43.5365 144.111 42.1442 142.242 40.928 140.259C40.2443 139.182 39.6552 138.077 39.1024 137.051C39.7788 136.608 42.8844 134.564 43.8518 133.066C44.8191 131.567 45.5609 129.545 44.9427 127.851C44.8114 127.446 44.5964 127.073 44.3115 126.757C44.0267 126.44 43.6785 126.188 43.2895 126.015C42.9005 125.842 42.4795 125.753 42.0539 125.753C41.6282 125.754 41.2074 125.844 40.8189 126.018C38.5133 127.138 37.7933 131.698 38.106 133.96C38.106 134.084 38.4333 135.32 38.6733 136.215C38.4333 135.735 38.1788 135.24 37.946 134.76C37.1024 133.015 36.4405 131.371 35.8587 129.902C35.5386 129.065 35.2695 128.309 35.0222 127.589C35.4659 126.811 37.2042 123.632 37.3787 121.894C37.5533 120.156 37.2842 117.981 35.9241 116.759C35.6209 116.461 35.2582 116.23 34.8598 116.081C34.4614 115.932 34.0361 115.868 33.6115 115.894C33.1869 115.92 32.7726 116.035 32.3954 116.232C32.0182 116.429 31.6866 116.703 31.4221 117.036C29.8947 119.087 31.3566 123.472 32.6803 125.334C32.7894 125.494 34.8622 127.814 34.8622 127.771V127.72C35.0877 128.447 35.335 129.174 35.5895 129.96C36.135 131.415 36.7678 133.109 37.5751 134.877C38.4218 136.793 39.3811 138.659 40.448 140.462C41.636 142.488 42.9988 144.405 44.5209 146.193L44.5791 146.252C43.939 145.859 42.1208 144.797 41.968 144.753C39.8661 143.852 35.2768 143.342 33.5895 145.27C33.3194 145.599 33.1215 145.981 33.0087 146.392C32.8958 146.802 32.8704 147.232 32.9342 147.653C32.9979 148.074 33.1494 148.477 33.3788 148.836C33.6082 149.194 33.9104 149.501 34.2658 149.735C35.7205 150.776 37.9606 150.572 39.5825 150.055C41.4226 149.474 44.5209 146.673 44.7682 146.419C46.3529 148.195 48.0537 149.864 49.8593 151.416C50.9139 152.325 52.0049 153.212 53.1104 154.077L51.9685 153.437C49.8666 152.536 45.2773 152.026 43.5899 153.961C43.3197 154.289 43.1215 154.671 43.0081 155.08C42.8947 155.49 42.8687 155.919 42.9318 156.339C42.9949 156.76 43.1457 157.162 43.3743 157.52C43.603 157.879 43.9044 158.185 44.2591 158.42C45.7137 159.467 47.9538 159.256 49.583 158.74C51.2121 158.223 53.9468 155.888 54.6305 155.256L55.9105 156.252C57.9688 157.823 60.0271 159.387 61.9981 160.98C62.689 161.54 63.3509 162.122 64.02 162.696C63.5182 162.412 63.0963 162.172 63.0236 162.143C60.929 161.241 56.3324 160.732 54.6523 162.66C54.3819 162.988 54.1836 163.37 54.0701 163.781C53.9567 164.191 53.9307 164.62 53.9937 165.041C54.0568 165.462 54.2076 165.865 54.4363 166.224C54.665 166.583 54.9665 166.89 55.3214 167.125C56.776 168.165 59.0161 167.962 60.6453 167.445C62.2745 166.929 64.7255 164.813 65.5619 164.071C66.231 164.682 66.8929 165.293 67.5111 165.918C67.9257 166.347 68.3475 166.74 68.7402 167.198L69.9112 168.522C70.6385 169.395 71.3658 170.289 72.0422 171.155C72.515 171.751 72.9586 172.333 73.4023 172.915C72.7186 172.347 71.3513 171.264 71.2204 171.191C69.2785 169.976 64.8201 168.776 62.8636 170.464C62.5465 170.748 62.2928 171.095 62.1191 171.484C61.9454 171.872 61.8556 172.293 61.8556 172.718C61.8556 173.144 61.9454 173.565 62.1191 173.953C62.2928 174.342 62.5465 174.689 62.8636 174.973C64.1655 176.231 66.391 176.362 68.0784 176.1C69.933 175.809 73.3005 173.613 73.715 173.337C74.4423 174.304 75.1697 175.249 75.8024 176.159C78.0716 179.286 79.839 181.977 81.0463 183.875L81.1699 184.072L82.7337 183.308L82.4864 182.937C81.2209 181.046 79.3808 178.362 77.0243 175.257C76.297 174.268 75.4751 173.235 74.6315 172.18C75.4973 171.223 76.3083 170.218 77.0607 169.169C78.8571 169.896 82.61 169.896 83.09 169.896C83.17 171.111 83.2355 172.289 83.2791 173.402C83.4391 177.257 83.4319 180.479 83.3882 182.733V182.995L85.1047 182.159C85.1047 179.919 85.0247 176.9 84.7919 173.322C84.7192 172.093 84.6174 170.776 84.4937 169.431C84.9738 169.315 88.8576 168.311 90.3122 167.14C91.6432 166.071 93.0469 164.34 93.0032 162.536C93.0064 162.11 92.9199 161.688 92.7492 161.298C92.5785 160.908 92.3275 160.558 92.0125 160.271C91.6976 159.984 91.3258 159.767 90.9213 159.633C90.5168 159.5 90.0887 159.453 89.6649 159.496C87.1266 159.823 84.9956 163.918 84.5737 166.173C84.5737 166.304 84.4428 167.773 84.3846 168.696C84.3337 168.151 84.2901 167.613 84.2319 167.045C84.1155 165.933 83.9701 164.813 83.8173 163.62L83.5337 161.867C83.4537 161.285 83.2937 160.681 83.17 160.078C82.8646 158.681 82.4864 157.292 82.0718 155.888C83.0464 155.794 86.5229 155.379 88.0139 154.528C89.5049 153.677 91.1413 152.179 91.3668 150.383C91.4348 149.963 91.4135 149.533 91.3042 149.122C91.1948 148.71 90.9999 148.327 90.7322 147.996C90.4645 147.665 90.13 147.394 89.7506 147.202C89.3712 147.009 88.9554 146.898 88.5303 146.877C85.9702 146.812 83.2428 150.514 82.4936 152.696C82.4427 152.827 82.0791 154.441 81.89 155.328C81.6354 154.492 81.3881 153.656 81.1045 152.812C80.2754 150.39 79.3662 147.968 78.4644 145.539L77.657 143.313C78.0061 143.277 82.1518 142.884 83.8173 141.924C85.272 141.073 86.9448 139.575 87.1702 137.786C87.2382 137.365 87.2169 136.935 87.1076 136.523C86.9983 136.112 86.8035 135.728 86.5359 135.396C86.2683 135.065 85.9339 134.794 85.5545 134.6C85.1751 134.406 84.7591 134.295 84.3337 134.273C81.7736 134.215 79.0462 137.909 78.2971 140.091C78.2389 140.259 77.7152 142.571 77.6061 143.168C77.017 141.531 76.4424 139.895 75.9479 138.259C75.2576 136.054 74.7133 133.807 74.3187 131.531C74.4787 131.531 78.8062 131.124 80.5154 130.142C81.97 129.291 83.6428 127.793 83.8683 125.996C83.9351 125.576 83.9129 125.147 83.8031 124.736C83.6933 124.325 83.4983 123.942 83.2309 123.611C82.9634 123.281 82.6294 123.01 82.2505 122.817C81.8716 122.624 81.4564 122.513 81.0318 122.49C78.4716 122.425 75.7442 126.127 74.9951 128.309C74.9442 128.454 74.5442 130.214 74.3696 131.058H74.2242C73.8904 128.756 73.7614 126.43 73.8387 124.105C73.8387 122.825 73.9623 121.603 74.0787 120.418C74.8933 120.418 78.6098 120.418 80.239 119.69C81.8682 118.963 83.6137 117.705 84.0355 115.945C84.1494 115.534 84.1754 115.105 84.1118 114.684C84.0482 114.263 83.8964 113.86 83.6665 113.501C83.4365 113.143 83.1335 112.837 82.7772 112.604C82.4209 112.371 82.0195 112.216 81.5991 112.148C79.0608 111.799 75.9406 115.21 74.9587 117.239C74.9006 117.356 74.486 118.556 74.1878 119.421C74.2533 118.883 74.3114 118.33 74.3769 117.821C74.6387 115.901 74.9951 114.185 75.3224 112.621C75.5188 111.748 75.7079 110.963 75.897 110.228C76.697 109.821 79.9117 108.141 80.9881 106.773C82.0645 105.406 83.0609 103.457 82.6246 101.682C82.3863 100.957 81.8834 100.348 81.216 99.9774C80.5487 99.6066 79.7661 99.5012 79.0244 99.6821Z" fill="#006EE9"/>
<path d="M32.724 139.16C34.7241 139.08 38.7242 137.029 38.7315 137.029C38.7388 137.029 36.5496 134.804 36.4187 134.68C34.6295 133.226 30.3384 131.553 28.2074 132.964C27.8587 133.208 27.5655 133.523 27.3471 133.889C27.1286 134.255 26.9898 134.662 26.9397 135.085C26.8896 135.508 26.9293 135.937 27.0562 136.343C27.1832 136.75 27.3945 137.125 27.6764 137.444C28.8256 138.848 31.0148 139.255 32.724 139.16Z" fill="#006EE9"/>
<g opacity="0.5">
<path opacity="0.5" d="M74.0714 120.2C74.115 120.2 73.5041 117.152 73.4386 116.97C72.7113 114.788 70.093 110.999 67.5329 111.006C67.1077 111.02 66.69 111.122 66.3071 111.308C65.9241 111.493 65.5844 111.757 65.31 112.082C65.0356 112.407 64.8327 112.786 64.7145 113.195C64.5962 113.603 64.5653 114.032 64.6237 114.454C64.8128 116.25 66.4274 117.785 67.8893 118.665C69.5912 119.705 74.0714 120.2 74.0714 120.2Z" fill="white"/>
<path opacity="0.5" d="M79.0244 99.6821C76.6097 100.548 75.3878 105.013 75.4897 107.297C75.4897 107.493 75.9479 110.57 75.9915 110.548H76.0424C75.846 111.275 75.6497 112.003 75.446 112.839C75.0824 114.374 74.7187 116.112 74.3841 118.032C74.0388 120.1 73.8105 122.186 73.7005 124.28C73.5728 126.622 73.6531 128.97 73.9405 131.298C73.944 131.327 73.944 131.356 73.9405 131.385C73.6278 130.702 72.6823 128.833 72.5877 128.694C71.3367 126.782 67.7875 123.821 65.3146 124.505C64.9083 124.631 64.5328 124.841 64.2126 125.121C63.8923 125.401 63.6344 125.745 63.4555 126.131C63.2766 126.517 63.1806 126.936 63.1739 127.361C63.1672 127.786 63.2498 128.208 63.4163 128.6C64.0709 130.28 66.0347 131.335 67.6784 131.8C69.533 132.331 73.6641 131.705 73.9914 131.655C74.3408 134.018 74.8486 136.356 75.5115 138.651C75.8897 139.99 76.3115 141.328 76.7552 142.666C76.4642 142.084 76.1951 141.568 76.1515 141.502C74.8933 139.589 71.3513 136.629 68.8784 137.313C68.4717 137.437 68.0956 137.645 67.7747 137.924C67.4539 138.204 67.1955 138.547 67.0164 138.933C66.8373 139.318 66.7415 139.738 66.7352 140.163C66.729 140.588 66.8124 141.01 66.9802 141.401C67.6347 143.088 69.5985 144.142 71.2422 144.608C72.8859 145.073 76.4351 144.608 77.3734 144.484C77.5479 144.993 77.7152 145.51 77.8898 146.019C78.7334 148.463 79.5917 150.906 80.3553 153.292C80.6244 154.143 80.8572 154.994 81.0826 155.838C80.8208 155.321 80.6026 154.892 80.559 154.834C79.308 152.921 75.7588 149.961 73.2859 150.645C72.8791 150.769 72.5031 150.977 72.1822 151.256C71.8614 151.535 71.603 151.879 71.4239 152.264C71.2447 152.65 71.1489 153.069 71.1427 153.494C71.1365 153.92 71.2199 154.341 71.3876 154.732C72.0422 156.419 74.0059 157.474 75.6497 157.939C77.2934 158.405 80.5008 157.998 81.6136 157.838C81.8318 158.718 82.05 159.59 82.2172 160.449C82.3263 161.038 82.4645 161.598 82.5373 162.201C82.61 162.805 82.6973 163.372 82.7845 163.947C82.9009 165.067 83.0246 166.224 83.1118 167.322C83.1773 168.049 83.2209 168.776 83.2718 169.504C83.0173 168.653 82.4718 166.994 82.4136 166.864C81.508 165.066 80.1587 163.529 78.4934 162.398C78.4005 162.194 78.2885 161.999 78.1589 161.816C77.9285 161.458 77.6254 161.152 77.2692 160.919C76.9131 160.685 76.5119 160.529 76.0915 160.46C75.6712 160.392 75.2411 160.412 74.8292 160.52C74.4173 160.629 74.0328 160.822 73.7005 161.089C71.7658 162.769 72.2459 167.358 73.1404 169.467C73.1914 169.591 73.9187 170.871 74.3841 171.649C74.035 171.22 73.7077 170.798 73.3441 170.355C72.6168 169.489 71.8895 168.638 71.104 167.722L69.9039 166.42C69.5112 165.976 69.0457 165.562 68.6093 165.125C67.5911 164.136 66.5001 163.183 65.3873 162.216C66.1147 161.591 68.8202 159.307 69.5912 157.801C70.3621 156.296 70.9003 154.114 70.1003 152.492C69.9254 152.104 69.6706 151.758 69.3526 151.475C69.0347 151.192 68.6607 150.98 68.255 150.851C67.8494 150.723 67.4213 150.682 66.9986 150.73C66.5759 150.778 66.1681 150.915 65.8019 151.132C63.62 152.492 63.4163 157.103 63.9764 159.321C64.0127 159.46 64.5946 161.001 64.9291 161.845C64.2527 161.292 63.5836 160.732 62.8854 160.187C60.8562 158.623 58.7616 157.103 56.6742 155.576C56.0342 155.11 55.4014 154.63 54.7687 154.165C55.045 153.939 58.2816 151.328 59.1325 149.612C59.8962 148.084 60.4489 145.924 59.6489 144.302C59.4739 143.915 59.2192 143.568 58.9012 143.285C58.5833 143.003 58.2093 142.79 57.8036 142.662C57.398 142.534 56.9698 142.492 56.5471 142.54C56.1244 142.589 55.7167 142.726 55.3505 142.942C53.1686 144.302 52.9577 148.914 53.525 151.132C53.525 151.299 54.405 153.525 54.645 154.077C53.2486 153.037 51.874 151.99 50.5503 150.899C48.7544 149.438 47.0538 147.864 45.4591 146.186C45.59 146.084 48.9793 143.371 49.823 141.611C50.5866 140.084 51.1394 137.924 50.3393 136.302C50.1644 135.914 49.9096 135.568 49.5917 135.285C49.2737 135.002 48.8997 134.79 48.4941 134.661C48.0884 134.533 47.6603 134.492 47.2376 134.54C46.8149 134.588 46.4071 134.725 46.041 134.942C43.859 136.302 43.6481 140.913 44.2154 143.131C44.2154 143.277 44.8918 144.972 45.2118 145.772L45.0882 145.844C43.5365 144.111 42.1441 142.242 40.928 140.259C40.2443 139.182 39.6552 138.077 39.1024 137.051C39.7788 136.608 42.8844 134.564 43.8518 133.066C44.8191 131.567 45.5609 129.545 44.9427 127.851C44.8114 127.446 44.5964 127.073 44.3115 126.757C44.0267 126.44 43.6785 126.188 43.2895 126.015C42.9005 125.842 42.4795 125.753 42.0539 125.753C41.6282 125.754 41.2074 125.844 40.8189 126.018C38.5133 127.138 37.7933 131.698 38.106 133.96C38.106 134.084 38.4333 135.32 38.6733 136.215C38.4333 135.735 38.1788 135.24 37.946 134.76C37.1023 133.015 36.4405 131.371 35.8586 129.902C35.5386 129.065 35.2695 128.309 35.0222 127.589C35.4659 126.811 37.2042 123.632 37.3787 121.894C37.5533 120.156 37.2842 117.981 35.9241 116.759C35.6208 116.461 35.2582 116.23 34.8598 116.081C34.4614 115.932 34.0361 115.868 33.6115 115.894C33.1869 115.92 32.7726 116.035 32.3954 116.232C32.0182 116.429 31.6866 116.703 31.4221 117.036C29.8947 119.087 31.3566 123.472 32.6803 125.334C32.7894 125.494 34.8622 127.814 34.8622 127.771V127.72C35.0877 128.447 35.335 129.174 35.5895 129.96C36.135 131.415 36.7678 133.109 37.5751 134.877C38.4218 136.793 39.3811 138.659 40.448 140.462C41.6359 142.488 42.9988 144.405 44.5209 146.193L44.5791 146.252C43.939 145.859 42.1208 144.797 41.968 144.753C39.8661 143.852 35.2768 143.342 33.5894 145.27C33.3194 145.599 33.1215 145.981 33.0086 146.392C32.8958 146.802 32.8704 147.232 32.9341 147.653C32.9979 148.074 33.1494 148.477 33.3788 148.836C33.6082 149.194 33.9104 149.501 34.2658 149.735C35.7204 150.776 37.9606 150.572 39.5825 150.055C41.4225 149.474 44.5209 146.673 44.7682 146.419C46.3528 148.195 48.0536 149.864 49.8593 151.416C50.9139 152.325 52.0049 153.212 53.1104 154.077L51.9685 153.437C49.8666 152.536 45.2773 152.026 43.5899 153.961C43.3197 154.289 43.1214 154.671 43.0081 155.08C42.8947 155.49 42.8687 155.919 42.9318 156.339C42.9949 156.76 43.1456 157.162 43.3743 157.52C43.6029 157.879 43.9044 158.185 44.259 158.42C45.7137 159.467 47.9538 159.256 49.5829 158.74C51.2121 158.223 53.9468 155.888 54.6305 155.256L55.9105 156.252C57.9688 157.823 60.0271 159.387 61.9981 160.98C62.689 161.54 63.3509 162.122 64.02 162.696C63.5182 162.412 63.0963 162.172 63.0236 162.143C60.9289 161.241 56.3324 160.732 54.6523 162.66C54.3819 162.988 54.1836 163.37 54.0701 163.781C53.9567 164.191 53.9306 164.62 53.9937 165.041C54.0568 165.462 54.2076 165.865 54.4363 166.224C54.665 166.583 54.9665 166.89 55.3214 167.125C56.776 168.165 59.0161 167.962 60.6453 167.445C62.2745 166.929 64.7255 164.813 65.5619 164.071C66.231 164.682 66.8929 165.293 67.5111 165.918C67.9256 166.347 68.3475 166.74 68.7402 167.198L69.9112 168.522C70.6385 169.395 71.3658 170.289 72.0422 171.155C72.515 171.751 72.9586 172.333 73.4023 172.915C72.7186 172.347 71.3513 171.264 71.2204 171.191C69.2784 169.976 64.82 168.776 62.8636 170.464C62.5465 170.748 62.2928 171.095 62.1191 171.484C61.9454 171.872 61.8556 172.293 61.8556 172.718C61.8556 173.144 61.9454 173.565 62.1191 173.953C62.2928 174.342 62.5465 174.689 62.8636 174.973C64.1655 176.231 66.391 176.362 68.0784 176.1C69.933 175.809 73.3005 173.613 73.715 173.337C74.4423 174.304 75.1696 175.249 75.8024 176.159C78.0716 179.286 79.839 181.977 81.0463 183.875L81.1699 184.072L82.7336 183.308L82.4864 182.937C81.2208 181.046 79.3807 178.362 77.0243 175.257C76.297 174.268 75.4751 173.235 74.6314 172.18C75.4973 171.223 76.3083 170.218 77.0606 169.169C78.8571 169.896 82.61 169.896 83.09 169.896C83.17 171.111 83.2355 172.289 83.2791 173.402C83.4391 177.257 83.4319 180.479 83.3882 182.733V182.995L85.1047 182.159C85.1047 179.919 85.0247 176.9 84.7919 173.322C84.7192 172.093 84.6174 170.776 84.4937 169.431C84.9738 169.315 88.8576 168.311 90.3122 167.14C91.6432 166.071 93.0469 164.34 93.0032 162.536C93.0064 162.11 92.9198 161.688 92.7491 161.298C92.5784 160.908 92.3275 160.558 92.0125 160.271C91.6976 159.984 91.3258 159.767 90.9213 159.633C90.5168 159.5 90.0887 159.453 89.6649 159.496C87.1266 159.823 84.9956 163.918 84.5737 166.173C84.5737 166.304 84.4428 167.773 84.3846 168.696C84.3337 168.151 84.2901 167.613 84.2319 167.045C84.1155 165.933 83.9701 164.813 83.8173 163.62L83.5337 161.867C83.4537 161.285 83.2937 160.681 83.17 160.078C82.8646 158.681 82.4864 157.292 82.0718 155.888C83.0464 155.794 86.5229 155.379 88.0139 154.528C89.5049 153.677 91.1413 152.179 91.3668 150.383C91.4348 149.963 91.4135 149.533 91.3041 149.122C91.1948 148.71 90.9999 148.327 90.7322 147.996C90.4645 147.665 90.13 147.394 89.7506 147.202C89.3712 147.009 88.9553 146.898 88.5303 146.877C85.9702 146.812 83.2428 150.514 82.4936 152.696C82.4427 152.827 82.0791 154.441 81.89 155.328C81.6354 154.492 81.3881 153.656 81.1045 152.812C80.2753 150.39 79.3662 147.968 78.4643 145.539L77.657 143.313C78.0061 143.277 82.1518 142.884 83.8173 141.924C85.2719 141.073 86.9447 139.575 87.1702 137.786C87.2382 137.365 87.2169 136.935 87.1076 136.523C86.9983 136.112 86.8035 135.728 86.5359 135.396C86.2683 135.065 85.9339 134.794 85.5545 134.6C85.175 134.406 84.7591 134.295 84.3337 134.273C81.7736 134.215 79.0462 137.909 78.2971 140.091C78.2389 140.259 77.7152 142.571 77.6061 143.168C77.017 141.531 76.4424 139.895 75.9479 138.259C75.2575 136.054 74.7133 133.807 74.3187 131.531C74.4787 131.531 78.8062 131.124 80.5154 130.142C81.97 129.291 83.6428 127.793 83.8682 125.996C83.9351 125.576 83.9129 125.147 83.8031 124.736C83.6933 124.325 83.4983 123.942 83.2308 123.611C82.9634 123.281 82.6293 123.01 82.2505 122.817C81.8716 122.624 81.4564 122.513 81.0317 122.49C78.4716 122.425 75.7442 126.127 74.9951 128.309C74.9442 128.454 74.5442 130.214 74.3696 131.058H74.2241C73.8904 128.756 73.7614 126.43 73.8387 124.105C73.8387 122.825 73.9623 121.603 74.0787 120.418C74.8933 120.418 78.6098 120.418 80.239 119.69C81.8681 118.963 83.6137 117.705 84.0355 115.945C84.1494 115.534 84.1754 115.105 84.1118 114.684C84.0482 114.263 83.8964 113.86 83.6665 113.501C83.4365 113.143 83.1334 112.837 82.7772 112.604C82.4209 112.371 82.0195 112.216 81.599 112.148C79.0607 111.799 75.9406 115.21 74.9587 117.239C74.9005 117.356 74.486 118.556 74.1878 119.421C74.2532 118.883 74.3114 118.33 74.3769 117.821C74.6387 115.901 74.9951 114.185 75.3224 112.621C75.5187 111.748 75.7078 110.963 75.8969 110.228C76.697 109.821 79.9117 108.141 80.9881 106.773C82.0645 105.406 83.0609 103.457 82.6245 101.682C82.3863 100.957 81.8833 100.348 81.216 99.9774C80.5487 99.6066 79.766 99.5012 79.0244 99.6821Z" fill="white"/>
<path opacity="0.5" d="M32.7239 139.16C34.724 139.08 38.7242 137.029 38.7315 137.029C38.7388 137.029 36.5496 134.804 36.4187 134.68C34.6295 133.226 30.3384 131.553 28.2074 132.964C27.8587 133.208 27.5655 133.523 27.3471 133.889C27.1286 134.255 26.9898 134.662 26.9397 135.085C26.8895 135.508 26.9293 135.937 27.0562 136.343C27.1832 136.75 27.3945 137.125 27.6764 137.444C28.8256 138.848 31.0148 139.255 32.7239 139.16Z" fill="white"/>
</g>
<path d="M57.1688 194.087C57.1688 194.087 69.3148 164.813 76.1152 166.085C82.9155 167.358 64.4782 212.757 64.4782 212.757C64.4782 212.757 85.8465 172.449 100.422 172.449C114.997 172.449 95.0761 216.997 76.6243 231.849C76.6243 231.849 105.76 200.451 122.757 207.244C139.755 214.037 88.763 245.849 88.763 245.849C88.763 245.849 118.386 236.518 114.99 243.733C111.593 250.948 102.364 252.213 102.364 252.213L135.871 253.915H19.2906L45.5173 251.37C45.5173 251.37 18.316 237.791 25.6036 232.278C32.8912 226.765 48.9138 238.642 48.9138 238.642C48.9138 238.642 21.2325 208.095 26.5709 196.632C31.9094 185.17 55.7142 217.426 55.7142 217.426C55.7142 217.426 36.2878 176.268 40.1716 169.075C44.0554 161.882 57.1688 194.087 57.1688 194.087Z" fill="#006EE9"/>
<path opacity="0.5" d="M57.1688 194.087C57.1688 194.087 69.3148 164.813 76.1152 166.085C82.9155 167.358 64.4782 212.757 64.4782 212.757C64.4782 212.757 85.8465 172.449 100.422 172.449C114.997 172.449 95.0761 216.997 76.6243 231.849C76.6243 231.849 105.76 200.451 122.757 207.244C139.755 214.037 88.763 245.849 88.763 245.849C88.763 245.849 118.386 236.518 114.99 243.733C111.593 250.948 102.364 252.213 102.364 252.213L135.871 253.915H19.2906L45.5173 251.37C45.5173 251.37 18.316 237.791 25.6036 232.278C32.8912 226.765 48.9138 238.642 48.9138 238.642C48.9138 238.642 21.2325 208.095 26.5709 196.632C31.9094 185.17 55.7142 217.426 55.7142 217.426C55.7142 217.426 36.2878 176.268 40.1716 169.075C44.0554 161.882 57.1688 194.087 57.1688 194.087Z" fill="white"/>
<path d="M53.2849 195.629C63.9691 227.201 63.9691 249.544 63.9691 249.544C63.9691 249.544 51.343 250.024 38.2297 240.314" stroke="#263238" stroke-linecap="round" stroke-linejoin="round"/>
<path d="M58.6307 212.633C60.827 203.194 63.7449 193.937 67.3584 184.945" stroke="#263238" stroke-linecap="round" stroke-linejoin="round"/>
<path d="M90.1958 194.174L63.0018 234.489C63.0018 234.489 44.5427 218.946 38.2297 210.204" stroke="#263238" stroke-linecap="round" stroke-linejoin="round"/>
<path d="M63.4891 244.198C63.4891 244.198 92.1377 230.598 103.796 222.83" stroke="#263238" stroke-linecap="round" stroke-linejoin="round"/>
<path d="M213.853 194.087C213.853 194.087 201.714 164.813 194.943 166.085C188.172 167.358 206.58 212.757 206.58 212.757C206.58 212.757 185.211 172.449 170.643 172.449C156.075 172.449 175.982 216.997 194.441 231.849C194.441 231.849 165.298 200.451 148.3 207.244C131.303 214.037 182.302 245.849 182.302 245.849C182.302 245.849 152.672 236.518 156.075 243.733C159.479 250.948 168.701 252.213 168.701 252.213L135.165 253.915H251.738L225.512 251.37C225.512 251.37 252.706 237.791 245.425 232.278C238.145 226.765 222.108 238.642 222.108 238.642C222.108 238.642 249.796 208.095 244.451 196.632C239.105 185.17 215.307 217.426 215.307 217.426C215.307 217.426 234.741 176.268 230.85 169.053C226.959 161.838 213.853 194.087 213.853 194.087Z" fill="#006EE9"/>
<path opacity="0.5" d="M213.853 194.087C213.853 194.087 201.714 164.813 194.943 166.085C188.172 167.358 206.58 212.757 206.58 212.757C206.58 212.757 185.211 172.449 170.643 172.449C156.075 172.449 175.982 216.997 194.441 231.849C194.441 231.849 165.298 200.451 148.3 207.244C131.303 214.037 182.302 245.849 182.302 245.849C182.302 245.849 152.672 236.518 156.075 243.733C159.479 250.948 168.701 252.213 168.701 252.213L135.165 253.915H251.738L225.512 251.37C225.512 251.37 252.706 237.791 245.425 232.278C238.145 226.765 222.108 238.642 222.108 238.642C222.108 238.642 249.796 208.095 244.451 196.632C239.105 185.17 215.307 217.426 215.307 217.426C215.307 217.426 234.741 176.268 230.85 169.053C226.959 161.838 213.853 194.087 213.853 194.087Z" fill="white"/>
<path d="M217.737 195.629C207.052 227.201 207.052 249.544 207.052 249.544C207.052 249.544 219.679 250.024 232.792 240.314" stroke="#263238" stroke-linecap="round" stroke-linejoin="round"/>
<path d="M212.398 212.633C210.202 203.194 207.284 193.937 203.67 184.945" stroke="#263238" stroke-linecap="round" stroke-linejoin="round"/>
<path d="M180.826 194.174L208.027 234.489C208.027 234.489 226.479 218.946 232.792 210.204" stroke="#263238" stroke-linecap="round" stroke-linejoin="round"/>
<path d="M207.54 244.198C207.54 244.198 178.884 230.598 167.225 222.83" stroke="#263238" stroke-linecap="round" stroke-linejoin="round"/>
<path d="M194.245 36.3411H81.9482C79.2368 36.3411 77.0388 38.539 77.0388 41.2504V251.508C77.0388 254.219 79.2368 256.417 81.9482 256.417H194.245C196.956 256.417 199.154 254.219 199.154 251.508V41.2504C199.154 38.539 196.956 36.3411 194.245 36.3411Z" fill="#263238" stroke="#263238" stroke-miterlimit="10"/>
<path d="M146.54 49.4908H131.34C131.134 49.4908 130.931 49.4503 130.741 49.3717C130.552 49.2932 130.379 49.178 130.234 49.0328C130.089 48.8876 129.974 48.7152 129.895 48.5255C129.816 48.3357 129.776 48.1324 129.776 47.9271C129.776 47.7221 129.816 47.5191 129.895 47.3298C129.974 47.1404 130.089 46.9685 130.234 46.8239C130.38 46.6793 130.552 46.5648 130.742 46.487C130.931 46.4092 131.135 46.3697 131.34 46.3706H146.54C146.953 46.3706 147.349 46.5346 147.641 46.8265C147.933 47.1184 148.097 47.5143 148.097 47.9271C148.098 48.1321 148.058 48.3352 147.98 48.5249C147.903 48.7146 147.788 48.887 147.644 49.0323C147.499 49.1776 147.327 49.2929 147.138 49.3716C146.948 49.4503 146.745 49.4908 146.54 49.4908Z" fill="#006EE9"/>
<path d="M191.437 236.751H84.7556V49.6726H110.044L112.888 52.0291C113.879 52.8578 115.131 53.311 116.423 53.3091H161.036C162.375 53.3018 163.666 52.811 164.672 51.9273L167.24 49.6726H191.415L191.437 236.751Z" fill="white" stroke="#263238" stroke-width="0.938618" stroke-linecap="round" stroke-linejoin="round"/>
<path d="M127.361 63.4625L125.907 58.575H89.5994V63.4625V226.816V231.711H186.921V63.4625H127.361Z" fill="#006EE9"/>
<path d="M183.495 72.27H93.0178V226.328H183.495V72.27Z" fill="white"/>
<path d="M141.507 242.533C141.509 242.052 141.368 241.582 141.102 241.181C140.836 240.781 140.457 240.468 140.013 240.283C139.569 240.098 139.08 240.049 138.609 240.142C138.137 240.235 137.704 240.466 137.363 240.805C137.023 241.145 136.791 241.578 136.696 242.049C136.602 242.52 136.65 243.009 136.833 243.454C137.017 243.898 137.328 244.278 137.728 244.545C138.128 244.812 138.597 244.955 139.078 244.955C139.721 244.953 140.336 244.697 140.791 244.244C141.246 243.79 141.504 243.175 141.507 242.533Z" fill="#006EE9"/>
<path d="M131.463 219.601C147.916 219.601 161.254 200.623 161.254 177.213C161.254 153.803 147.916 134.826 131.463 134.826C115.01 134.826 101.673 153.803 101.673 177.213C101.673 200.623 115.01 219.601 131.463 219.601Z" fill="#006EE9"/>
<path opacity="0.5" d="M131.463 219.601C147.916 219.601 161.254 200.623 161.254 177.213C161.254 153.803 147.916 134.826 131.463 134.826C115.01 134.826 101.673 153.803 101.673 177.213C101.673 200.623 115.01 219.601 131.463 219.601Z" fill="white"/>
<path d="M135.689 129.902C135.689 129.902 133.827 126.789 132.118 126.636C130.409 126.483 110.059 139.255 106.946 145.903C103.833 152.55 100.887 165.889 109.128 178.726C117.164 191.214 129.761 190.799 136.293 190.174C142.824 189.548 147.202 187.425 153.821 182.115C160.439 176.806 166.512 168.987 167.392 163.678C168.272 158.369 165.036 155.416 162.97 154.681C160.905 153.947 148.955 154.092 140.249 145.226C131.543 136.36 135.689 129.902 135.689 129.902Z" fill="#263238" stroke="#263238" stroke-linecap="round" stroke-linejoin="round"/>
<path d="M138.329 125.858C138.329 125.858 133.049 127.88 129.783 131.451C126.518 135.022 124.503 140.622 124.35 148.855C124.197 157.089 126.838 166.405 137.085 170.449C147.333 174.493 156.505 171.38 159.457 168.58C162.41 165.78 166.003 157.867 166.003 157.867C166.003 157.867 149.697 162.231 141.929 153.045C134.162 143.859 138.329 125.858 138.329 125.858Z" fill="white" stroke="#263238" stroke-linecap="round" stroke-linejoin="round"/>
<path d="M229.592 131.596C225.606 125.618 216.093 123.851 208.572 121.414C201.052 118.978 196.623 114.141 198.616 102.17C200.608 90.198 210.98 70.7498 210.783 67.2078C210.587 63.6658 174.942 63.8913 171.618 65.0259C168.294 66.1605 167.64 65.906 164.541 69.8916C162.824 72.044 161.271 74.322 159.894 76.7065L163.734 68.6334H164.018C164.435 67.5723 165.027 66.5889 165.77 65.7241C169.15 61.8037 171.065 56.8324 171.189 51.658C171.334 44.0431 165.916 44.7777 164.89 47.1196C163.865 49.4615 157.865 57.5201 156.104 59.7166C154.344 61.913 150.686 67.9206 150.686 67.9206L146.62 82.0158C146.62 82.0158 145.733 86.2197 140.642 102.155C135.551 118.09 137.769 125.436 137.769 125.436C137.769 125.436 136.438 124.774 133.34 134.287C130.241 143.801 131.572 155.969 137.1 161.722C142.627 167.475 149.937 167.256 158.126 163.94C163.164 161.781 167.36 158.038 170.076 153.277C170.076 153.277 178.709 151.096 185.124 146.201C191.539 141.306 196.405 136.244 205.714 136.688C215.024 137.131 225.628 142.441 229.17 142.215C232.712 141.99 233.577 137.568 229.592 131.596Z" fill="white"/>
<path d="M172.52 110.89C147.9 114.563 140.162 120.439 142.62 128.527C143.13 130.131 143.959 131.615 145.057 132.891C145.057 133.044 145.057 133.211 145.1 133.386C145.1 133.386 145.537 133.647 146.191 134.113C147.053 134.945 147.985 135.702 148.977 136.375C150.591 137.909 152.039 139.83 151.741 141.611C151.108 145.408 142.286 152.041 137.827 152.361C133.369 152.681 131.82 148.252 131.187 152.994C130.554 157.736 140.358 169.431 149.842 168.165C159.326 166.9 167.232 153.619 167.232 153.619C167.232 153.619 165.967 151.437 172.323 144.768C176.498 140.404 182.469 138.477 187.044 136.688C191.363 135.417 195.573 133.802 199.634 131.858C210.885 126.345 224.253 130.025 224.253 130.025C224.253 130.025 197.139 107.173 172.52 110.89Z" fill="#006EE9"/>
<path opacity="0.5" d="M172.52 110.89C147.9 114.563 140.162 120.439 142.62 128.527C143.13 130.131 143.959 131.615 145.057 132.891C145.057 133.044 145.057 133.211 145.1 133.386C145.1 133.386 145.537 133.647 146.191 134.113C147.053 134.945 147.985 135.702 148.977 136.375C150.591 137.909 152.039 139.83 151.741 141.611C151.108 145.408 142.286 152.041 137.827 152.361C133.369 152.681 131.82 148.252 131.187 152.994C130.554 157.736 140.358 169.431 149.842 168.165C159.326 166.9 167.232 153.619 167.232 153.619C167.232 153.619 165.967 151.437 172.323 144.768C176.498 140.404 182.469 138.477 187.044 136.688C191.363 135.417 195.573 133.802 199.634 131.858C210.885 126.345 224.253 130.025 224.253 130.025C224.253 130.025 197.139 107.173 172.52 110.89Z" fill="white"/>
<path d="M229.592 131.596C225.606 125.618 216.093 123.851 208.572 121.414C201.052 118.978 196.623 114.141 198.616 102.17C200.608 90.198 210.98 70.7498 210.783 67.2078C210.587 63.6658 174.942 63.8913 171.618 65.0259C168.294 66.1605 167.64 65.906 164.541 69.8916C162.824 72.044 161.271 74.322 159.894 76.7065L163.734 68.6334H164.018C164.435 67.5723 165.027 66.5889 165.77 65.7241C169.15 61.8037 171.065 56.8324 171.189 51.658C171.334 44.0431 165.916 44.7777 164.89 47.1196C163.865 49.4615 157.865 57.5201 156.104 59.7166C154.344 61.913 150.686 67.9206 150.686 67.9206L146.62 82.0158C146.62 82.0158 145.733 86.2197 140.642 102.155C135.551 118.09 137.769 125.436 137.769 125.436C137.769 125.436 136.438 124.774 133.34 134.287C130.241 143.801 131.572 155.969 137.1 161.722C142.627 167.475 149.937 167.256 158.126 163.94C163.164 161.781 167.36 158.038 170.076 153.277C170.076 153.277 178.709 151.096 185.124 146.201C191.539 141.306 196.405 136.244 205.714 136.688C215.024 137.131 225.628 142.441 229.17 142.215C232.712 141.99 233.577 137.568 229.592 131.596Z" stroke="#263238" stroke-linecap="round" stroke-linejoin="round"/>
<path d="M229.715 142.164C229.715 142.164 230.181 140.302 224.901 137.8C219.62 135.298 217.446 137.022 217.446 138.266C217.446 139.51 228.901 142.164 229.715 142.164Z" fill="white" stroke="#263238" stroke-linecap="round" stroke-linejoin="round"/>
<path d="M179.684 56.9456L166.36 67.2006H184.229C184.229 67.2006 184.229 54.6036 179.684 56.9456Z" fill="white" stroke="#263238" stroke-linecap="round" stroke-linejoin="round"/>
<path d="M162.97 130.913C164.863 128.774 167.222 127.099 169.865 126.018" stroke="#263238" stroke-linecap="round" stroke-linejoin="round"/>
<path d="M160.548 134.891C160.753 134.3 161.018 133.732 161.341 133.197" stroke="#263238" stroke-linecap="round" stroke-linejoin="round"/>
<path d="M155.239 148.71C154.526 148.083 153.86 147.405 153.246 146.681" stroke="#263238" stroke-linecap="round" stroke-linejoin="round"/>
<path d="M170.076 153.278C165.967 153.745 161.815 152.894 158.221 150.848" stroke="#263238" stroke-linecap="round" stroke-linejoin="round"/>
<path d="M219.897 66.3206H152.752C143.478 66.3206 135.965 73.4991 135.965 82.3213V113.959C135.965 121.654 141.646 128.084 149.224 129.633L145.682 140.113L162.076 130.018H219.897C229.163 130.018 236.683 122.84 236.683 114.017V82.3795C236.683 73.4991 229.163 66.3206 219.897 66.3206Z" fill="#006EE9" stroke="#263238" stroke-width="2" stroke-miterlimit="10"/>
<path d="M146.897 87.6233H222.377" stroke="#263238" stroke-width="2.06409" stroke-miterlimit="10" stroke-linecap="round"/>
<path d="M146.897 95.3984H222.377" stroke="#263238" stroke-width="2.06409" stroke-miterlimit="10" stroke-linecap="round"/>
<path d="M146.897 103.166H222.377" stroke="#263238" stroke-width="2.06409" stroke-miterlimit="10" stroke-linecap="round"/>
<path d="M146.897 110.934H222.377" stroke="#263238" stroke-width="2.06409" stroke-miterlimit="10" stroke-linecap="round"/>
<path d="M236.072 94.0528C241.242 94.0528 245.432 90.0508 245.432 85.1141C245.432 80.1775 241.242 76.1755 236.072 76.1755C230.902 76.1755 226.712 80.1775 226.712 85.1141C226.712 90.0508 230.902 94.0528 236.072 94.0528Z" fill="#263238"/>
<path d="M235.345 91.4271C235.037 90.8126 234.899 90.1272 234.945 89.4415V82.1684L233.301 83.0848C233.124 83.1872 232.924 83.2423 232.719 83.2449C232.566 83.2464 232.414 83.2155 232.274 83.1541C232.133 83.0926 232.007 83.0021 231.905 82.8885C231.69 82.666 231.573 82.3681 231.577 82.0593C231.572 81.8495 231.633 81.6435 231.752 81.4702C231.922 81.2672 232.123 81.0928 232.348 80.9538L235.534 79.3247C235.89 79.0695 236.306 78.9116 236.741 78.8665C237.825 78.8665 238.363 79.681 238.363 81.3102V89.6961C238.363 91.2889 237.796 92.0816 236.654 92.0816C236.396 92.1043 236.138 92.0552 235.907 91.9396C235.676 91.8241 235.481 91.6466 235.345 91.4271Z" fill="white"/>
<path d="M200.158 61.6365C200.158 61.6365 200.456 67.4914 205.729 70.2769C211.002 73.0625 217.737 72.4589 217.882 68.9605C218.027 65.4622 213.925 61.782 211.147 57.0909C208.369 52.3997 202.209 55.0471 199.576 58.2691" fill="white"/>
<path d="M200.158 61.6365C200.158 61.6365 200.456 67.4914 205.729 70.2769C211.002 73.0625 217.737 72.4589 217.882 68.9605C218.027 65.4622 213.925 61.782 211.147 57.0909C208.369 52.3997 202.209 55.0471 199.576 58.2691" stroke="#263238" stroke-linecap="round" stroke-linejoin="round"/>
<path d="M209.242 66.3206C208.798 68.6625 210.413 69.9572 211.874 70.6845C213.336 71.4118 216.238 70.9827 217.882 68.9316C217.955 67.2152 217.017 65.4697 215.7 63.5859C213.867 63.8187 209.583 64.4878 209.242 66.3206Z" fill="white" stroke="#263238" stroke-linecap="round" stroke-linejoin="round"/>
<path d="M189.175 61.6365C189.175 61.6365 189.466 67.4914 194.739 70.2769C200.012 73.0625 206.754 72.4589 206.9 68.9605C207.045 65.4622 202.943 61.782 200.158 57.0909C197.372 52.3997 191.226 55.0471 188.586 58.2691" fill="white"/>
<path d="M189.175 61.6365C189.175 61.6365 189.466 67.4914 194.739 70.2769C200.012 73.0625 206.754 72.4589 206.9 68.9605C207.045 65.4622 202.943 61.782 200.158 57.0909C197.372 52.3997 191.226 55.0471 188.586 58.2691" stroke="#263238" stroke-linecap="round" stroke-linejoin="round"/>
<path d="M198.259 66.3206C197.816 68.6625 199.43 69.9572 200.892 70.6845C202.354 71.4118 205.256 70.9827 206.9 68.9316C206.965 67.2152 206.027 65.4697 204.718 63.5859C202.885 63.8187 198.601 64.4878 198.259 66.3206Z" fill="white" stroke="#263238" stroke-linecap="round" stroke-linejoin="round"/>
<path d="M178.957 61.6365C178.957 61.6365 179.247 67.4914 184.52 70.2769C189.793 73.0625 196.528 72.4589 196.674 68.9605C196.819 65.4622 192.724 61.782 189.939 57.0909C187.153 52.3997 181 55.0471 178.367 58.2691" fill="white"/>
<path d="M178.957 61.6365C178.957 61.6365 179.247 67.4914 184.52 70.2769C189.793 73.0625 196.528 72.4589 196.674 68.9605C196.819 65.4622 192.724 61.782 189.939 57.0909C187.153 52.3997 181 55.0471 178.367 58.2691" stroke="#263238" stroke-linecap="round" stroke-linejoin="round"/>
<path d="M188.033 66.3206C187.597 68.6625 189.204 69.9572 190.673 70.6845C192.143 71.4118 195.037 70.9827 196.674 68.9316C196.746 67.2152 195.808 65.4697 194.492 63.5859C192.659 63.8187 188.375 64.4878 188.033 66.3206Z" fill="white" stroke="#263238" stroke-linecap="round" stroke-linejoin="round"/>
<path d="M137.769 125.436C137.769 125.436 138.176 134.44 143.144 140.499" stroke="#263238" stroke-linecap="round" stroke-linejoin="round"/>
<path d="M123.31 163.016C123.31 164.849 122.088 166.333 120.583 166.333C119.077 166.333 117.855 164.878 117.855 163.016C117.855 161.154 119.077 159.699 120.583 159.699C122.088 159.699 123.31 161.183 123.31 163.016Z" fill="white"/>
<path d="M116.524 167.147C116.524 168.98 115.302 170.464 113.797 170.464C112.291 170.464 111.07 169.009 111.07 167.147C111.07 165.285 112.291 163.823 113.797 163.823C115.302 163.823 116.524 165.314 116.524 167.147Z" stroke="#263238" stroke-linecap="round" stroke-linejoin="round"/>
</svg>
